<?xml version="1.0" encoding="UTF-8"?>
<svg xmlns="http://www.w3.org/2000/svg" xmlns:xlink="http://www.w3.org/1999/xlink" width="400pt" height="200pt" viewBox="0 0 400 200" version="1.1">
<g id="surface1">
<path style=" stroke:none;fill-rule:nonzero;fill:rgb(94.901961%,94.901961%,94.901961%);fill-opacity:1;" d="M 94.125 173.828125 C 93.097656 181.917969 89.511719 189.378906 85.519531 196.554688 C 85.320312 196.914062 85.125 197.265625 84.921875 197.625 L 33.164062 197.625 C 32.246094 197.300781 31.34375 196.941406 30.445312 196.554688 C 27.132812 195.164062 23.988281 193.40625 21.070312 191.308594 C 4.234375 179.183594 -2.246094 156.261719 0.683594 135.726562 C 2.496094 122.960938 8.101562 109.9375 19.003906 103.0625 C 24.925781 99.460938 31.988281 98.222656 38.78125 99.597656 C 38.957031 99.632812 39.132812 99.667969 39.308594 99.710938 C 45.011719 100.996094 50.089844 104.183594 52.984375 109.320312 C 58.183594 118.554688 55.085938 129.996094 52.53125 140.273438 C 49.980469 150.554688 48.597656 162.855469 55.996094 170.4375 C 53.785156 163.984375 55.234375 156.839844 59.78125 151.753906 C 64.332031 146.667969 71.269531 144.4375 77.929688 145.914062 C 78.464844 146.027344 78.996094 146.15625 79.519531 146.316406 C 80.773438 146.683594 81.984375 147.191406 83.128906 147.828125 C 91.851562 152.699219 95.378906 163.917969 94.125 173.828125 Z M 94.125 173.828125 "/>
<path style=" stroke:none;fill-rule:nonzero;fill:rgb(100%,100%,100%);fill-opacity:1;" d="M 60.378906 196.554688 C 61.535156 196.945312 62.699219 197.300781 63.871094 197.625 L 58.808594 197.625 C 57.867188 197.292969 56.933594 196.9375 56.003906 196.554688 C 55.800781 196.476562 55.59375 196.390625 55.390625 196.304688 C 47.75 193.101562 40.710938 188.289062 35.390625 181.882812 C 32.78125 178.78125 30.65625 175.308594 29.082031 171.578125 C 27.367188 167.363281 26.277344 162.917969 25.851562 158.390625 C 24.886719 149.097656 25.867188 139.546875 27.707031 130.417969 C 29.601562 120.957031 32.667969 111.765625 36.828125 103.058594 C 37.332031 102.015625 37.847656 100.980469 38.378906 99.945312 C 38.457031 99.777344 38.601562 99.648438 38.78125 99.597656 C 38.964844 99.5625 39.15625 99.605469 39.308594 99.710938 C 39.691406 99.929688 39.835938 100.410156 39.636719 100.800781 C 35.347656 109.164062 32.097656 118.019531 29.957031 127.171875 C 27.859375 136.101562 26.667969 145.445312 27.082031 154.621094 C 27.464844 163.199219 29.707031 171.632812 34.792969 178.648438 C 39.527344 185.023438 45.757812 190.132812 52.9375 193.535156 C 55.347656 194.703125 57.835938 195.714844 60.378906 196.554688 Z M 60.378906 196.554688 "/>
<path style=" stroke:none;fill-rule:nonzero;fill:rgb(100%,100%,100%);fill-opacity:1;" d="M 80.792969 197.625 L 78.828125 197.625 C 78.550781 197.273438 78.285156 196.914062 78.019531 196.554688 C 74.160156 191.308594 71.527344 185.261719 70.320312 178.859375 C 68.675781 169.894531 69.957031 160.640625 73.980469 152.460938 C 75.101562 150.167969 76.425781 147.976562 77.929688 145.914062 C 78.464844 146.027344 78.996094 146.15625 79.519531 146.316406 C 75.550781 151.570312 72.882812 157.6875 71.734375 164.171875 C 69.796875 175.636719 72.769531 187.390625 79.925781 196.554688 C 80.207031 196.917969 80.496094 197.277344 80.792969 197.625 Z M 80.792969 197.625 "/>
<path style=" stroke:none;fill-rule:nonzero;fill:rgb(100%,72.156863%,72.156863%);fill-opacity:1;" d="M 181.117188 99.601562 C 181.542969 97.957031 181.210938 96.207031 180.222656 94.824219 C 179.230469 93.445312 177.679688 92.574219 175.984375 92.445312 L 143.300781 51.585938 L 135.214844 59.121094 L 169.738281 98.15625 C 169.714844 101.082031 171.882812 103.5625 174.785156 103.933594 C 177.6875 104.304688 180.410156 102.441406 181.117188 99.601562 Z M 181.117188 99.601562 "/>
<path style=" stroke:none;fill-rule:nonzero;fill:rgb(80%,80%,80%);fill-opacity:1;" d="M 149.570312 58.078125 L 139.242188 65.988281 C 138.648438 66.441406 137.882812 66.617188 137.148438 66.464844 C 136.417969 66.308594 135.785156 65.847656 135.421875 65.191406 L 129.132812 53.847656 C 126.75 50.703125 127.363281 46.226562 130.503906 43.839844 C 133.640625 41.453125 138.117188 42.050781 140.515625 45.183594 L 149.796875 54.183594 C 150.335938 54.703125 150.621094 55.433594 150.574219 56.179688 C 150.53125 56.929688 150.164062 57.621094 149.570312 58.078125 Z M 149.570312 58.078125 "/>
<path style=" stroke:none;fill-rule:nonzero;fill:rgb(100%,72.156863%,72.156863%);fill-opacity:1;" d="M 145.359375 20.273438 C 145.359375 27.527344 139.476562 33.410156 132.222656 33.410156 C 124.96875 33.410156 119.089844 27.527344 119.089844 20.273438 C 119.089844 13.019531 124.96875 7.140625 132.222656 7.140625 C 139.476562 7.140625 145.359375 13.019531 145.359375 20.273438 Z M 145.359375 20.273438 "/>
<path style=" stroke:none;fill-rule:nonzero;fill:rgb(100%,72.156863%,72.156863%);fill-opacity:1;" d="M 160.261719 190.644531 L 166.816406 190.644531 L 166.191406 178.375 L 156.515625 178.375 Z M 160.261719 190.644531 "/>
<path style=" stroke:none;fill-rule:nonzero;fill:rgb(18.431373%,18.039216%,25.490196%);fill-opacity:1;" d="M 158.589844 188.503906 L 171.5 188.503906 C 176.042969 188.503906 179.726562 192.1875 179.726562 196.730469 L 179.726562 197 L 158.589844 197 Z M 158.589844 188.503906 "/>
<path style=" stroke:none;fill-rule:nonzero;fill:rgb(100%,72.156863%,72.156863%);fill-opacity:1;" d="M 90.359375 181.363281 L 95.9375 184.808594 L 101.855469 174.039062 L 95.105469 169.816406 Z M 90.359375 181.363281 "/>
<path style=" stroke:none;fill-rule:nonzero;fill:rgb(18.431373%,18.039216%,25.490196%);fill-opacity:1;" d="M 90.0625 178.664062 L 101.046875 185.449219 C 104.914062 187.835938 106.113281 192.90625 103.722656 196.773438 L 103.582031 197 L 85.597656 185.890625 Z M 90.0625 178.664062 "/>
<path style=" stroke:none;fill-rule:nonzero;fill:rgb(18.431373%,18.039216%,25.490196%);fill-opacity:1;" d="M 159.785156 187.046875 C 158.789062 187.046875 157.894531 186.429688 157.542969 185.496094 L 133.828125 128.796875 C 133.722656 128.515625 133.46875 128.316406 133.171875 128.277344 C 132.871094 128.242188 132.578125 128.375 132.410156 128.625 L 99.832031 179.945312 C 99.171875 180.933594 97.890625 181.292969 96.816406 180.785156 L 92.359375 178.707031 C 91.171875 178.144531 90.648438 176.738281 91.179688 175.539062 L 117.871094 116.042969 C 117.289062 114.625 111.605469 100.066406 120.339844 92.875 L 120.398438 92.835938 L 144.082031 82.269531 L 144.679688 100.4375 L 168.285156 182.347656 C 168.464844 182.96875 168.386719 183.636719 168.066406 184.199219 C 167.746094 184.765625 167.214844 185.175781 166.585938 185.339844 L 160.402344 186.96875 C 160.203125 187.019531 159.996094 187.046875 159.785156 187.046875 Z M 159.785156 187.046875 "/>
<path style=" stroke:none;fill-rule:nonzero;fill:rgb(80%,80%,80%);fill-opacity:1;" d="M 144.441406 55.695312 C 143.539062 52.074219 142.261719 48.425781 140.546875 46.742188 C 139.917969 46.128906 139.328125 45.476562 138.777344 44.789062 C 137.625 43.339844 136.171875 42.152344 134.523438 41.308594 C 135.128906 40.972656 135.480469 40.570312 135.480469 40.140625 C 135.480469 38.957031 132.847656 38 129.597656 38 C 126.351562 38 123.714844 38.957031 123.714844 40.140625 C 123.734375 40.417969 123.859375 40.675781 124.066406 40.859375 C 119.742188 42.621094 116.757812 46.644531 116.328125 51.296875 C 115.566406 59.433594 115.347656 69.832031 118.007812 76.410156 C 120.242188 81.851562 120.417969 87.917969 118.507812 93.480469 C 118.242188 94.273438 118.464844 95.144531 119.070312 95.714844 C 119.679688 96.285156 120.5625 96.453125 121.335938 96.136719 L 144.835938 86.667969 C 145.644531 86.34375 146.175781 85.558594 146.175781 84.683594 L 146.175781 70.300781 C 146.195312 65.378906 145.613281 60.472656 144.441406 55.695312 Z M 144.441406 55.695312 "/>
<path style=" stroke:none;fill-rule:nonzero;fill:rgb(100%,72.156863%,72.156863%);fill-opacity:1;" d="M 99.476562 114.9375 C 101.132812 114.550781 102.53125 113.453125 103.300781 111.9375 C 104.070312 110.417969 104.125 108.640625 103.457031 107.078125 L 121.84375 58.589844 L 112.519531 56.179688 L 95.511719 104.171875 C 92.90625 105.5 91.703125 108.566406 92.714844 111.3125 C 93.722656 114.058594 96.628906 115.617188 99.476562 114.9375 Z M 99.476562 114.9375 "/>
<path style=" stroke:none;fill-rule:nonzero;fill:rgb(80%,80%,80%);fill-opacity:1;" d="M 121.769531 67.789062 L 109.984375 62.273438 C 109.308594 61.957031 108.800781 61.359375 108.597656 60.636719 C 108.394531 59.917969 108.515625 59.144531 108.929688 58.519531 L 116.089844 47.703125 C 117.785156 44.144531 122.039062 42.625 125.601562 44.308594 C 129.167969 45.988281 130.699219 50.238281 129.03125 53.808594 L 125.328125 66.195312 C 125.113281 66.910156 124.597656 67.5 123.914062 67.808594 C 123.230469 68.113281 122.445312 68.105469 121.769531 67.789062 Z M 121.769531 67.789062 "/>
<path style=" stroke:none;fill-rule:nonzero;fill:rgb(18.431373%,18.039216%,25.490196%);fill-opacity:1;" d="M 144.289062 17.042969 C 144.882812 17.113281 145.480469 17.003906 146.011719 16.730469 C 146.980469 16.097656 146.886719 14.65625 146.558594 13.546875 C 144.898438 8.136719 140.59375 3.945312 135.140625 2.433594 C 133.269531 1.9375 130.902344 1.957031 129.832031 3.566406 C 124.277344 -0.132812 116.851562 0.78125 112.359375 5.714844 C 110.164062 8.121094 108.910156 11.261719 108.257812 14.453125 C 107.132812 19.953125 102.328125 31.296875 104.992188 36.234375 C 106.761719 39.523438 114.914062 36.960938 118.363281 38.394531 C 121.8125 39.824219 126.003906 39.664062 129.070312 37.53125 C 132.132812 35.394531 133.742188 31.175781 132.429688 27.683594 C 131.921875 26.328125 131.039062 25.15625 130.34375 23.890625 C 129.652344 22.625 129.132812 21.160156 129.441406 19.75 C 129.925781 17.554688 140.289062 16.960938 144.289062 17.042969 Z M 144.289062 17.042969 "/>
<path style=" stroke:none;fill-rule:nonzero;fill:rgb(24.705882%,23.921569%,33.72549%);fill-opacity:1;" d="M 255.082031 197.089844 C 255.082031 197.234375 255.023438 197.367188 254.925781 197.46875 C 254.824219 197.570312 254.6875 197.625 254.546875 197.625 L 0.535156 197.625 C 0.238281 197.625 0 197.386719 0 197.089844 C 0 196.796875 0.238281 196.554688 0.535156 196.554688 L 254.546875 196.554688 C 254.6875 196.554688 254.824219 196.613281 254.925781 196.710938 C 255.023438 196.8125 255.082031 196.949219 255.082031 197.089844 Z M 255.082031 197.089844 "/>
<path style=" stroke:none;fill-rule:nonzero;fill:rgb(42.352941%,38.823529%,100%);fill-opacity:1;" d="M 312.21875 196.554688 C 312.21875 194.785156 303.839844 193.347656 293.503906 193.347656 C 283.164062 193.347656 274.785156 194.785156 274.785156 196.554688 C 274.785156 198.328125 283.164062 199.765625 293.503906 199.765625 C 303.839844 199.765625 312.21875 198.328125 312.21875 196.554688 Z M 312.21875 196.554688 "/>
<path style=" stroke:none;fill-rule:nonzero;fill:rgb(24.705882%,23.921569%,33.72549%);fill-opacity:1;" d="M 399.5625 197.859375 L 327.90625 197.859375 C 327.609375 197.859375 327.371094 197.621094 327.371094 197.328125 C 327.371094 197.03125 327.609375 196.792969 327.90625 196.792969 L 399.5625 196.792969 C 399.859375 196.792969 400.097656 197.03125 400.097656 197.328125 C 400.097656 197.621094 399.859375 197.859375 399.5625 197.859375 Z M 399.5625 197.859375 "/>
<path style=" stroke:none;fill-rule:nonzero;fill:rgb(42.352941%,38.823529%,100%);fill-opacity:1;" d="M 279.589844 57.359375 C 279.59375 45.355469 287.976562 34.980469 299.710938 32.457031 C 289.550781 30.277344 279.082031 34.492188 273.261719 43.105469 C 267.445312 51.71875 267.445312 63.003906 273.261719 71.617188 C 279.082031 80.230469 289.550781 84.445312 299.710938 82.261719 C 287.976562 79.742188 279.59375 69.367188 279.589844 57.359375 Z M 279.589844 57.359375 "/>
<path style=" stroke:none;fill-rule:nonzero;fill:rgb(42.352941%,38.823529%,100%);fill-opacity:1;" d="M 251.871094 57.359375 C 251.875 28.609375 273.3125 4.367188 301.851562 0.851562 C 285.664062 -1.132812 269.402344 3.917969 257.1875 14.722656 C 244.972656 25.527344 237.976562 41.050781 237.96875 57.359375 C 237.96875 82.898438 275.523438 154.914062 289.628906 181.0625 C 290.675781 183 292.699219 184.207031 294.898438 184.207031 C 297.101562 184.207031 299.125 183 300.167969 181.0625 C 300.695312 180.082031 301.261719 179.03125 301.851562 177.929688 C 286.667969 149.582031 251.871094 81.941406 251.871094 57.359375 Z M 251.871094 57.359375 "/>
<path style=" stroke:none;fill-rule:nonzero;fill:rgb(24.705882%,23.921569%,33.72549%);fill-opacity:1;" d="M 294.949219 184.847656 C 292.546875 184.867188 290.332031 183.546875 289.210938 181.421875 C 273.65625 152.589844 237.484375 82.800781 237.484375 57.464844 C 237.484375 25.730469 263.210938 0 294.949219 0 C 326.6875 0 352.414062 25.730469 352.414062 57.464844 C 352.414062 82.804688 316.242188 152.589844 300.6875 181.421875 C 299.566406 183.546875 297.351562 184.867188 294.949219 184.847656 Z M 294.949219 1.070312 C 263.816406 1.105469 238.585938 26.332031 238.550781 57.464844 C 238.550781 82.558594 274.636719 152.152344 290.148438 180.914062 C 291.101562 182.679688 292.945312 183.777344 294.949219 183.777344 C 296.953125 183.777344 298.796875 182.679688 299.746094 180.914062 C 315.261719 152.15625 351.34375 82.558594 351.34375 57.464844 C 351.308594 26.332031 326.082031 1.105469 294.949219 1.070312 Z M 294.949219 1.070312 "/>
<path style=" stroke:none;fill-rule:nonzero;fill:rgb(24.705882%,23.921569%,33.72549%);fill-opacity:1;" d="M 294.949219 83.46875 C 280.585938 83.46875 268.945312 71.828125 268.945312 57.464844 C 268.945312 43.105469 280.585938 31.460938 294.949219 31.460938 C 309.308594 31.460938 320.953125 43.105469 320.953125 57.464844 C 320.9375 71.820312 309.304688 83.453125 294.949219 83.46875 Z M 294.949219 32.53125 C 281.179688 32.53125 270.015625 43.695312 270.015625 57.464844 C 270.015625 71.238281 281.175781 82.402344 294.949219 82.402344 C 308.71875 82.402344 319.882812 71.238281 319.882812 57.464844 C 319.867188 43.703125 308.714844 32.546875 294.949219 32.53125 Z M 294.949219 32.53125 "/>
</g>
</svg>
