<?xml version="1.0" encoding="UTF-8"?>
<svg xmlns="http://www.w3.org/2000/svg" xmlns:xlink="http://www.w3.org/1999/xlink" width="400pt" height="200pt" viewBox="0 0 400 200" version="1.1">
<defs>
<filter id="alpha" filterUnits="objectBoundingBox" x="0%" y="0%" width="100%" height="100%">
  <feColorMatrix type="matrix" in="SourceGraphic" values="0 0 0 0 1 0 0 0 0 1 0 0 0 0 1 0 0 0 1 0"/>
</filter>
<mask id="mask0">
  <g filter="url(#alpha)">
<rect x="0" y="0" width="400" height="200" style="fill:rgb(0%,0%,0%);fill-opacity:0.278431;stroke:none;"/>
  </g>
</mask>
<clipPath id="clip1">
  <rect x="0" y="0" width="400" height="200"/>
</clipPath>
<g id="surface5" clip-path="url(#clip1)">
<path style=" stroke:none;fill-rule:nonzero;fill:rgb(0%,0%,0%);fill-opacity:1;" d="M 305.574219 104.285156 L 303.492188 118.007812 L 387.660156 117.152344 L 350.953125 74.402344 L 320.984375 73.632812 Z M 305.574219 104.285156 "/>
</g>
</defs>
<g id="surface1">
<path style=" stroke:none;fill-rule:nonzero;fill:rgb(100%,72.156863%,72.156863%);fill-opacity:1;" d="M 353.066406 194.972656 L 346.378906 194.972656 L 343.195312 176.53125 L 353.070312 176.53125 Z M 353.066406 194.972656 "/>
<path style=" stroke:none;fill-rule:nonzero;fill:rgb(18.431373%,18.039216%,25.490196%);fill-opacity:1;" d="M 354.773438 199.605469 L 333.207031 199.605469 L 333.207031 199.410156 C 333.207031 196.097656 336.964844 193.410156 341.601562 193.410156 L 354.773438 193.410156 Z M 354.773438 199.605469 "/>
<path style=" stroke:none;fill-rule:nonzero;fill:rgb(100%,72.156863%,72.156863%);fill-opacity:1;" d="M 382.589844 183.21875 L 378.246094 186.855469 L 356.554688 176.617188 L 362.964844 171.25 Z M 382.589844 183.21875 "/>
<path style=" stroke:none;fill-rule:nonzero;fill:rgb(18.431373%,18.039216%,25.490196%);fill-opacity:1;" d="M 388.628906 185.300781 L 374.628906 197.027344 L 374.421875 196.898438 C 370.894531 194.746094 370.476562 190.960938 373.484375 188.441406 L 382.035156 181.277344 Z M 388.628906 185.300781 "/>
<path style=" stroke:none;fill-rule:nonzero;fill:rgb(18.431373%,18.039216%,25.490196%);fill-opacity:1;" d="M 305.574219 104.285156 L 303.492188 118.007812 L 387.660156 117.152344 L 350.953125 74.402344 L 320.984375 73.632812 Z M 305.574219 104.285156 "/>
<use xlink:href="#surface5" mask="url(#mask0)"/>
<path style=" stroke:none;fill-rule:nonzero;fill:rgb(18.431373%,18.039216%,25.490196%);fill-opacity:1;" d="M 322.125 106.640625 L 319.15625 119.199219 L 319.15625 130.425781 L 343.113281 136.011719 C 343.113281 136.011719 340.308594 179.613281 344.046875 182.390625 L 343.953125 189.09375 L 354.40625 189.433594 L 354.492188 184.714844 L 358.921875 149.453125 L 361.53125 123.558594 L 357.300781 103.929688 Z M 322.125 106.640625 "/>
<path style=" stroke:none;fill-rule:nonzero;fill:rgb(18.431373%,18.039216%,25.490196%);fill-opacity:1;" d="M 340.6875 117.449219 L 319.15625 130.425781 C 319.15625 130.425781 317.894531 153.832031 321.09375 156.574219 C 323.84375 158.933594 359.59375 179.269531 359.59375 179.269531 C 359.59375 179.269531 365.945312 183.433594 369.507812 183.5 C 373.066406 183.566406 377.207031 178.230469 377.207031 178.230469 L 368.960938 173.75 C 368.960938 173.75 347.597656 159.496094 341.257812 153.832031 C 338.695312 151.542969 338.695312 151.3125 338.695312 151.3125 L 339.570312 141.800781 L 348.371094 124.148438 Z M 340.6875 117.449219 "/>
<path style=" stroke:none;fill-rule:nonzero;fill:rgb(18.431373%,18.039216%,25.490196%);fill-opacity:1;" d="M 317.824219 55.308594 L 308.542969 54.695312 L 300.121094 55.699219 L 282.289062 55.703125 L 280.773438 64.941406 L 297.042969 67.542969 L 301.007812 66.152344 L 317.539062 70.65625 Z M 317.824219 55.308594 "/>
<path style=" stroke:none;fill-rule:nonzero;fill:rgb(80%,80%,80%);fill-opacity:1;" d="M 328.914062 55.28125 C 328.914062 55.28125 348.617188 53.960938 353.097656 56.476562 C 357.578125 58.992188 367.179688 108.859375 367.179688 108.859375 L 328.914062 110.402344 L 322.054688 107.027344 L 324 82.132812 Z M 328.914062 55.28125 "/>
<path style=" stroke:none;fill-rule:nonzero;fill:rgb(18.431373%,18.039216%,25.490196%);fill-opacity:1;" d="M 334.929688 54.96875 L 313.195312 55.308594 L 292.933594 120.753906 L 308.933594 123.269531 Z M 334.929688 54.96875 "/>
<path style=" stroke:none;fill-rule:nonzero;fill:rgb(18.431373%,18.039216%,25.490196%);fill-opacity:1;" d="M 350.378906 54.417969 L 367.496094 58.246094 L 366.527344 85.136719 L 387.660156 117.28125 L 362.816406 119.152344 L 343.175781 84.441406 Z M 350.378906 54.417969 "/>
<path style=" stroke:none;fill-rule:nonzero;fill:rgb(100%,72.156863%,72.156863%);fill-opacity:1;" d="M 378.609375 120.546875 C 379.824219 119.78125 380.503906 118.671875 380.460938 117.515625 C 380.421875 116.359375 379.667969 115.277344 378.402344 114.554688 L 381.84375 105.96875 L 375.054688 103.199219 L 370.429688 115.375 C 368.839844 117.011719 369.21875 119.238281 371.304688 120.558594 C 373.390625 121.878906 376.527344 121.875 378.609375 120.546875 Z M 378.609375 120.546875 "/>
<path style=" stroke:none;fill-rule:nonzero;fill:rgb(18.431373%,18.039216%,25.490196%);fill-opacity:1;" d="M 357.578125 58.992188 L 367.707031 58.363281 C 367.707031 58.363281 376.800781 65.164062 378.871094 70.425781 C 380.9375 75.691406 383.179688 92.160156 383.179688 92.160156 L 382.246094 116.253906 L 370.402344 110.507812 L 369.609375 89.785156 Z M 357.578125 58.992188 "/>
<path style=" stroke:none;fill-rule:nonzero;fill:rgb(100%,72.156863%,72.156863%);fill-opacity:1;" d="M 349.421875 32.953125 C 356.378906 35.671875 358.9375 41.910156 355.132812 46.882812 C 351.328125 51.855469 342.605469 53.683594 335.644531 50.964844 C 328.6875 48.246094 326.128906 42.011719 329.933594 37.035156 C 333.738281 32.0625 342.464844 30.234375 349.421875 32.953125 Z M 349.421875 32.953125 "/>
<path style=" stroke:none;fill-rule:nonzero;fill:rgb(18.431373%,18.039216%,25.490196%);fill-opacity:1;" d="M 340.933594 37.675781 C 339.050781 37.363281 337.09375 37.707031 335.183594 37.933594 C 333.277344 38.15625 331.175781 38.230469 329.558594 37.46875 C 328.367188 36.90625 327.636719 35.976562 326.945312 35.082031 C 326.660156 34.761719 326.46875 34.40625 326.382812 34.03125 C 326.304688 33.367188 326.890625 32.765625 327.515625 32.273438 C 330.421875 29.992188 334.664062 28.742188 338.941406 28.347656 C 342.472656 27.972656 346.078125 28.285156 349.375 29.257812 C 352.625 30.277344 355.417969 32.140625 356.691406 34.503906 C 357.28125 35.714844 357.648438 36.976562 357.785156 38.253906 C 357.980469 39.195312 358.003906 40.148438 357.859375 41.09375 C 357.6875 41.792969 357.429688 42.480469 357.089844 43.148438 L 354.976562 47.714844 C 354.824219 48.144531 354.539062 48.546875 354.144531 48.890625 C 353.726562 49.238281 353.039062 49.34375 352.457031 49.15625 C 352.628906 48.660156 352.652344 48.144531 352.535156 47.640625 C 352.398438 47.128906 351.839844 46.722656 351.121094 46.625 C 350.34375 46.5625 349.675781 46.996094 348.9375 47.183594 C 347.515625 47.484375 346.015625 46.902344 345.59375 45.886719 C 345.574219 45.835938 345.558594 45.789062 345.542969 45.738281 C 345.425781 45.214844 345.621094 44.65625 345.34375 44.167969 C 345.019531 43.59375 344.160156 43.292969 343.515625 42.878906 C 342.3125 42.085938 341.859375 40.863281 342.359375 39.75 C 342.53125 39.371094 343.019531 39.195312 342.921875 38.761719 C 342.792969 38.1875 341.613281 37.789062 340.933594 37.675781 Z M 340.933594 37.675781 "/>
<path style=" stroke:none;fill-rule:nonzero;fill:rgb(100%,100%,100%);fill-opacity:1;" d="M 181.289062 81.0625 L 0 81.0625 L 0 0 L 181.289062 0 Z M 181.289062 81.0625 "/>
<path style=" stroke:none;fill-rule:nonzero;fill:rgb(24.705882%,23.921569%,33.72549%);fill-opacity:1;" d="M 181.289062 81.0625 L 0 81.0625 L 0 0 L 181.289062 0 Z M 0.828125 80.46875 L 180.460938 80.46875 L 180.460938 0.589844 L 0.828125 0.589844 Z M 0.828125 80.46875 "/>
<path style=" stroke:none;fill-rule:nonzero;fill:rgb(100%,100%,100%);fill-opacity:1;" d="M 159.144531 193.335938 L 55.667969 193.335938 L 55.667969 112.273438 L 159.144531 112.273438 Z M 159.144531 193.335938 "/>
<path style=" stroke:none;fill-rule:nonzero;fill:rgb(24.705882%,23.921569%,33.72549%);fill-opacity:1;" d="M 159.144531 193.335938 L 55.667969 193.335938 L 55.667969 112.273438 L 159.144531 112.273438 Z M 56.496094 192.742188 L 158.316406 192.742188 L 158.316406 112.863281 L 56.496094 112.863281 Z M 56.496094 192.742188 "/>
<path style=" stroke:none;fill-rule:nonzero;fill:rgb(24.705882%,23.921569%,33.72549%);fill-opacity:1;" d="M 123.550781 185.679688 L 145.070312 185.679688 L 145.070312 186.300781 L 123.550781 186.300781 Z M 123.550781 185.679688 "/>
<path style=" stroke:none;fill-rule:nonzero;fill:rgb(24.705882%,23.921569%,33.72549%);fill-opacity:1;" d="M 123.550781 187.550781 L 145.070312 187.550781 L 145.070312 188.171875 L 123.550781 188.171875 Z M 123.550781 187.550781 "/>
<path style=" stroke:none;fill-rule:nonzero;fill:rgb(24.705882%,23.921569%,33.72549%);fill-opacity:1;" d="M 123.550781 189.421875 L 145.070312 189.421875 L 145.070312 190.042969 L 123.550781 190.042969 Z M 123.550781 189.421875 "/>
<path style=" stroke:none;fill-rule:nonzero;fill:rgb(90.196078%,90.196078%,90.196078%);fill-opacity:1;" d="M 107.40625 126.769531 L 107.40625 133.277344 C 118.457031 133.277344 128.417969 138.035156 132.644531 145.332031 C 136.875 152.628906 134.535156 161.027344 126.722656 166.609375 L 133.164062 171.210938 C 143.578125 163.765625 146.695312 152.570312 141.058594 142.839844 C 135.421875 133.113281 122.140625 126.769531 107.40625 126.769531 Z M 107.40625 126.769531 "/>
<path style=" stroke:none;fill-rule:nonzero;fill:rgb(34.117647%,35.294118%,53.72549%);fill-opacity:1;" d="M 133.164062 171.210938 L 126.722656 166.609375 C 117.066406 173.515625 101.753906 174.257812 90.878906 168.347656 L 85.367188 173.53125 C 99.871094 181.410156 120.28125 180.417969 133.164062 171.210938 Z M 133.164062 171.210938 "/>
<path style=" stroke:none;fill-rule:nonzero;fill:rgb(50.588235%,11.764706%,50.196078%);fill-opacity:1;" d="M 80.089844 152.804688 C 80.089844 142.019531 92.320312 133.277344 107.40625 133.277344 L 107.40625 126.769531 C 91.773438 126.769531 77.882812 133.902344 72.890625 144.492188 C 67.898438 155.082031 72.921875 166.769531 85.367188 173.53125 L 90.878906 168.347656 C 84.078125 164.660156 80.082031 158.90625 80.089844 152.804688 Z M 80.089844 152.804688 "/>
<path style=" stroke:none;fill-rule:nonzero;fill:rgb(100%,100%,100%);fill-opacity:1;" d="M 312.289062 143.039062 L 208.8125 143.039062 L 208.8125 61.980469 L 312.289062 61.980469 Z M 312.289062 143.039062 "/>
<path style=" stroke:none;fill-rule:nonzero;fill:rgb(24.705882%,23.921569%,33.72549%);fill-opacity:1;" d="M 312.289062 143.039062 L 208.8125 143.039062 L 208.8125 61.980469 L 312.289062 61.980469 Z M 209.640625 142.449219 L 311.460938 142.449219 L 311.460938 62.570312 L 209.640625 62.570312 Z M 209.640625 142.449219 "/>
<path style=" stroke:none;fill-rule:nonzero;fill:rgb(34.117647%,35.294118%,53.72549%);fill-opacity:1;" d="M 223.714844 111.53125 L 242.339844 111.53125 L 242.339844 132.832031 L 223.714844 132.832031 Z M 223.714844 111.53125 "/>
<path style=" stroke:none;fill-rule:nonzero;fill:rgb(90.196078%,90.196078%,90.196078%);fill-opacity:1;" d="M 250.617188 97.035156 L 269.242188 97.035156 L 269.242188 132.832031 L 250.617188 132.832031 Z M 250.617188 97.035156 "/>
<path style=" stroke:none;fill-rule:nonzero;fill:rgb(50.588235%,11.764706%,50.196078%);fill-opacity:1;" d="M 277.519531 80.171875 L 296.144531 80.171875 L 296.144531 132.832031 L 277.519531 132.832031 Z M 277.519531 80.171875 "/>
<path style=" stroke:none;fill-rule:nonzero;fill:rgb(24.705882%,23.921569%,33.72549%);fill-opacity:1;" d="M 302.355469 133.425781 L 218.746094 133.425781 L 218.746094 71.59375 L 219.574219 71.59375 L 219.574219 132.832031 L 302.355469 132.832031 Z M 302.355469 133.425781 "/>
<path style=" stroke:none;fill-rule:nonzero;fill:rgb(100%,72.156863%,72.156863%);fill-opacity:1;" d="M 287.898438 60.0625 C 287.898438 62.3125 285.34375 64.136719 282.195312 64.136719 C 279.046875 64.136719 276.496094 62.3125 276.496094 60.0625 C 276.496094 57.8125 279.046875 55.988281 282.195312 55.988281 C 285.34375 55.988281 287.898438 57.8125 287.898438 60.0625 Z M 287.898438 60.0625 "/>
<path style=" stroke:none;fill-rule:nonzero;fill:rgb(80%,80%,80%);fill-opacity:1;" d="M 399.332031 200 L 310.496094 200 C 310.230469 200 310.019531 199.847656 310.019531 199.660156 C 310.019531 199.472656 310.230469 199.320312 310.496094 199.320312 L 399.332031 199.320312 C 399.59375 199.320312 399.804688 199.472656 399.804688 199.660156 C 399.804688 199.847656 399.59375 200 399.332031 200 Z M 399.332031 200 "/>
<path style=" stroke:none;fill-rule:nonzero;fill:rgb(24.705882%,23.921569%,33.72549%);fill-opacity:1;" d="M 156.113281 64.109375 L 25.175781 64.109375 C 24.949219 64.109375 24.765625 63.976562 24.765625 63.816406 L 24.765625 18.957031 C 24.765625 18.796875 24.949219 18.664062 25.175781 18.664062 C 25.402344 18.664062 25.585938 18.796875 25.585938 18.957031 L 25.585938 63.523438 L 156.113281 63.523438 C 156.257812 63.523438 156.394531 63.578125 156.46875 63.667969 C 156.542969 63.757812 156.542969 63.871094 156.46875 63.960938 C 156.394531 64.054688 156.257812 64.109375 156.113281 64.109375 Z M 156.113281 64.109375 "/>
<path style=" stroke:none;fill-rule:nonzero;fill:rgb(50.588235%,11.764706%,50.196078%);fill-opacity:1;" d="M 53.152344 60.886719 L 41.242188 60.886719 C 40.570312 60.886719 40.027344 60.496094 40.027344 60.015625 L 40.027344 48.28125 C 40.027344 47.804688 40.570312 47.414062 41.242188 47.414062 L 53.152344 47.414062 C 53.824219 47.414062 54.367188 47.804688 54.367188 48.28125 L 54.367188 60.015625 C 54.367188 60.496094 53.824219 60.886719 53.152344 60.886719 Z M 53.152344 60.886719 "/>
<path style=" stroke:none;fill-rule:nonzero;fill:rgb(50.588235%,11.764706%,50.196078%);fill-opacity:1;" d="M 74.871094 60.886719 L 62.960938 60.886719 C 62.289062 60.886719 61.746094 60.496094 61.742188 60.015625 L 61.742188 37.152344 C 61.746094 36.671875 62.289062 36.285156 62.960938 36.285156 L 74.871094 36.285156 C 75.539062 36.285156 76.085938 36.671875 76.085938 37.152344 L 76.085938 60.015625 C 76.085938 60.496094 75.539062 60.886719 74.871094 60.886719 Z M 74.871094 60.886719 "/>
<path style=" stroke:none;fill-rule:nonzero;fill:rgb(50.588235%,11.764706%,50.196078%);fill-opacity:1;" d="M 96.585938 60.886719 L 84.679688 60.886719 C 84.007812 60.886719 83.460938 60.496094 83.460938 60.015625 L 83.460938 48.28125 C 83.460938 47.804688 84.007812 47.414062 84.679688 47.414062 L 96.585938 47.414062 C 97.257812 47.414062 97.800781 47.804688 97.804688 48.28125 L 97.804688 60.015625 C 97.800781 60.496094 97.257812 60.886719 96.585938 60.886719 Z M 96.585938 60.886719 "/>
<path style=" stroke:none;fill-rule:nonzero;fill:rgb(50.588235%,11.764706%,50.196078%);fill-opacity:1;" d="M 118.304688 60.886719 L 106.394531 60.886719 C 105.738281 60.898438 105.195312 60.523438 105.179688 60.054688 L 105.179688 32.71875 C 105.195312 32.25 105.738281 31.878906 106.394531 31.890625 L 118.304688 31.890625 C 118.960938 31.878906 119.503906 32.25 119.519531 32.71875 L 119.519531 60.054688 C 119.503906 60.523438 118.960938 60.898438 118.304688 60.886719 Z M 118.304688 60.886719 "/>
<path style=" stroke:none;fill-rule:nonzero;fill:rgb(50.588235%,11.764706%,50.196078%);fill-opacity:1;" d="M 140.023438 60.886719 L 128.113281 60.886719 C 127.441406 60.886719 126.898438 60.496094 126.898438 60.015625 L 126.898438 24.851562 C 126.898438 24.371094 127.441406 23.984375 128.113281 23.980469 L 140.023438 23.980469 C 140.695312 23.984375 141.238281 24.371094 141.238281 24.851562 L 141.238281 60.015625 C 141.238281 60.496094 140.695312 60.886719 140.023438 60.886719 Z M 140.023438 60.886719 "/>
<path style=" stroke:none;fill-rule:nonzero;fill:rgb(24.705882%,23.921569%,33.72549%);fill-opacity:1;" d="M 49.65625 42.140625 C 49.65625 43.113281 48.554688 43.898438 47.195312 43.898438 C 45.839844 43.898438 44.738281 43.113281 44.738281 42.140625 C 44.738281 41.171875 45.839844 40.382812 47.195312 40.382812 C 48.554688 40.382812 49.65625 41.171875 49.65625 42.140625 Z M 49.65625 42.140625 "/>
<path style=" stroke:none;fill-rule:nonzero;fill:rgb(24.705882%,23.921569%,33.72549%);fill-opacity:1;" d="M 71.375 30.71875 C 71.375 31.6875 70.273438 32.476562 68.914062 32.476562 C 67.558594 32.476562 66.457031 31.6875 66.457031 30.71875 C 66.457031 29.75 67.558594 28.960938 68.914062 28.960938 C 70.273438 28.960938 71.375 29.75 71.375 30.71875 Z M 71.375 30.71875 "/>
<path style=" stroke:none;fill-rule:nonzero;fill:rgb(24.705882%,23.921569%,33.72549%);fill-opacity:1;" d="M 93.089844 42.140625 C 93.089844 43.113281 91.992188 43.898438 90.632812 43.898438 C 89.273438 43.898438 88.175781 43.113281 88.175781 42.140625 C 88.175781 41.171875 89.273438 40.382812 90.632812 40.382812 C 91.992188 40.382812 93.089844 41.171875 93.089844 42.140625 Z M 93.089844 42.140625 "/>
<path style=" stroke:none;fill-rule:nonzero;fill:rgb(24.705882%,23.921569%,33.72549%);fill-opacity:1;" d="M 114.808594 25.152344 C 114.808594 26.125 113.707031 26.910156 112.351562 26.910156 C 110.992188 26.910156 109.890625 26.125 109.890625 25.152344 C 109.890625 24.183594 110.992188 23.398438 112.351562 23.398438 C 113.707031 23.398438 114.808594 24.183594 114.808594 25.152344 Z M 114.808594 25.152344 "/>
<path style=" stroke:none;fill-rule:nonzero;fill:rgb(24.705882%,23.921569%,33.72549%);fill-opacity:1;" d="M 136.527344 18.710938 C 136.527344 19.679688 135.425781 20.46875 134.066406 20.46875 C 132.710938 20.46875 131.609375 19.679688 131.609375 18.710938 C 131.609375 17.738281 132.710938 16.953125 134.066406 16.953125 C 135.425781 16.953125 136.527344 17.738281 136.527344 18.710938 Z M 136.527344 18.710938 "/>
<path style=" stroke:none;fill-rule:nonzero;fill:rgb(24.705882%,23.921569%,33.72549%);fill-opacity:1;" d="M 90.683594 42.535156 L 68.914062 30.878906 L 47.441406 42.375 L 46.953125 41.90625 L 68.914062 30.148438 L 90.582031 41.746094 L 112.109375 24.90625 L 112.195312 24.882812 L 133.914062 18.628906 L 134.222656 19.171875 L 112.589844 25.402344 Z M 90.683594 42.535156 "/>
</g>
</svg>
