<?xml version="1.0" encoding="UTF-8"?>
<svg xmlns="http://www.w3.org/2000/svg" xmlns:xlink="http://www.w3.org/1999/xlink" width="400pt" height="200pt" viewBox="0 0 400 200" version="1.1">
<defs>
<filter id="alpha" filterUnits="objectBoundingBox" x="0%" y="0%" width="100%" height="100%">
  <feColorMatrix type="matrix" in="SourceGraphic" values="0 0 0 0 1 0 0 0 0 1 0 0 0 0 1 0 0 0 1 0"/>
</filter>
<mask id="mask0">
  <g filter="url(#alpha)">
<rect x="0" y="0" width="400" height="200" style="fill:rgb(0%,0%,0%);fill-opacity:0.501961;stroke:none;"/>
  </g>
</mask>
<mask id="mask1">
  <g filter="url(#alpha)">
<rect x="0" y="0" width="400" height="201" style="fill:rgb(0%,0%,0%);fill-opacity:0.101961;stroke:none;"/>
  </g>
</mask>
<clipPath id="clip2">
  <rect x="0" y="0" width="400" height="201"/>
</clipPath>
<g id="surface6" clip-path="url(#clip2)">
<path style=" stroke:none;fill-rule:nonzero;fill:rgb(0%,0%,0%);fill-opacity:1;" d="M 368.480469 102.964844 L 382.363281 102.964844 C 382.363281 102.964844 394.054688 110.0625 382.363281 117.414062 L 368.480469 117.414062 C 368.480469 117.414062 356.792969 110.824219 368.480469 102.964844 Z M 368.480469 102.964844 "/>
</g>
<clipPath id="clip1">
  <rect x="0" y="0" width="400" height="201"/>
</clipPath>
<g id="surface8" clip-path="url(#clip1)">
<path style=" stroke:none;fill-rule:nonzero;fill:rgb(81.568627%,82.352941%,83.529412%);fill-opacity:1;" d="M 356.105469 93.203125 L 394.738281 93.203125 C 397.589844 93.203125 399.898438 94.804688 399.898438 96.785156 L 399.898438 123.59375 C 399.898438 125.570312 397.589844 127.171875 394.738281 127.171875 L 356.105469 127.171875 C 353.257812 127.171875 350.949219 125.570312 350.949219 123.59375 L 350.949219 96.785156 C 350.949219 94.804688 353.257812 93.203125 356.105469 93.203125 Z M 356.105469 93.203125 "/>
<use xlink:href="#surface6" mask="url(#mask1)"/>
<path style=" stroke:none;fill-rule:nonzero;fill:rgb(24.705882%,23.921569%,33.72549%);fill-opacity:1;" d="M 369.945312 107.019531 L 371.769531 107.019531 L 371.769531 110.820312 L 369.945312 110.820312 Z M 369.945312 107.019531 "/>
<path style=" stroke:none;fill-rule:nonzero;fill:rgb(24.705882%,23.921569%,33.72549%);fill-opacity:1;" d="M 379.074219 106.511719 L 380.902344 106.511719 L 380.902344 111.074219 L 379.074219 111.074219 Z M 379.074219 106.511719 "/>
<path style=" stroke:none;fill-rule:nonzero;fill:rgb(24.705882%,23.921569%,33.72549%);fill-opacity:1;" d="M 375.421875 113.101562 C 376.632812 113.101562 377.613281 113.785156 377.613281 114.625 L 377.613281 115.890625 L 373.230469 115.890625 L 373.230469 114.625 C 373.230469 113.785156 374.210938 113.101562 375.421875 113.101562 Z M 375.421875 113.101562 "/>
</g>
<linearGradient id="linear0" gradientUnits="userSpaceOnUse" x1="2938.83" y1="215.4" x2="2938.83" y2="-91.93" gradientTransform="matrix(0.186301,0.217997,-0.314155,0.129278,-279.711416,-615.662864)">
<stop offset="0" style="stop-color:rgb(50.196078%,50.196078%,50.196078%);stop-opacity:0.25098;"/>
<stop offset="0.54" style="stop-color:rgb(50.196078%,50.196078%,50.196078%);stop-opacity:0.121569;"/>
<stop offset="1" style="stop-color:rgb(50.196078%,50.196078%,50.196078%);stop-opacity:0.101961;"/>
</linearGradient>
<mask id="mask2">
  <g filter="url(#alpha)">
<rect x="0" y="0" width="400" height="200" style="fill:rgb(0%,0%,0%);fill-opacity:0.101961;stroke:none;"/>
  </g>
</mask>
<clipPath id="clip3">
  <rect x="0" y="0" width="400" height="201"/>
</clipPath>
<g id="surface11" clip-path="url(#clip3)">
<path style=" stroke:none;fill-rule:nonzero;fill:rgb(0%,0%,0%);fill-opacity:1;" d="M 270.332031 13.808594 C 271.4375 14.558594 272.390625 15.410156 273.160156 16.34375 C 274.449219 17.898438 275.265625 19.707031 277.203125 20.90625 C 277.714844 21.207031 278.261719 21.480469 278.835938 21.722656 C 279.28125 21.953125 279.785156 22.125 280.316406 22.230469 C 282.054688 22.5 284.007812 22.125 285.703125 21.722656 C 287.378906 21.304688 289.007812 20.796875 290.570312 20.203125 C 290.582031 20.691406 290.777344 21.171875 291.140625 21.59375 C 291.546875 21.988281 292.375 22.222656 292.96875 21.972656 C 291.46875 22.460938 290.054688 23.066406 288.757812 23.78125 C 288.253906 24.074219 287.792969 24.398438 287.257812 24.664062 C 285.332031 25.625 282.671875 25.722656 280.890625 26.8125 C 280.351562 27.152344 279.558594 27.21875 278.914062 26.976562 C 278.296875 26.722656 277.878906 26.285156 277.371094 25.933594 C 276.367188 25.238281 275.011719 24.832031 274.027344 24.125 C 273.570312 23.800781 273.207031 23.410156 272.738281 23.09375 C 272.070312 22.636719 271.199219 22.332031 270.585938 21.824219 C 270.128906 21.453125 269.855469 21 269.429688 20.601562 C 269.0625 20.257812 268.632812 19.953125 268.308594 19.585938 C 267.511719 18.707031 267.519531 17.558594 267.972656 16.574219 C 268.429688 15.585938 269.480469 14.667969 270.332031 13.808594 Z M 270.332031 13.808594 "/>
</g>
<mask id="mask3">
  <g filter="url(#alpha)">
<rect x="0" y="0" width="400" height="200" style="fill:rgb(0%,0%,0%);fill-opacity:0.101961;stroke:none;"/>
  </g>
</mask>
<clipPath id="clip4">
  <rect x="0" y="0" width="400" height="201"/>
</clipPath>
<g id="surface14" clip-path="url(#clip4)">
<path style=" stroke:none;fill-rule:nonzero;fill:rgb(0%,0%,0%);fill-opacity:1;" d="M 272.175781 13.886719 C 270.398438 13.28125 269.085938 12.175781 268.578125 10.847656 C 269.410156 10.371094 270.183594 9.847656 270.886719 9.28125 C 271.417969 9.992188 272.027344 10.667969 272.710938 11.308594 C 273.101562 11.675781 274.425781 12.417969 274.328125 12.914062 C 274.226562 13.410156 272.765625 13.652344 272.175781 13.886719 Z M 272.175781 13.886719 "/>
</g>
<mask id="mask4">
  <g filter="url(#alpha)">
<rect x="0" y="0" width="400" height="200" style="fill:rgb(0%,0%,0%);fill-opacity:0.101961;stroke:none;"/>
  </g>
</mask>
<clipPath id="clip5">
  <rect x="0" y="0" width="400" height="201"/>
</clipPath>
<g id="surface17" clip-path="url(#clip5)">
<path style=" stroke:none;fill-rule:nonzero;fill:rgb(0%,0%,0%);fill-opacity:1;" d="M 253.164062 27.8125 C 252.84375 27.824219 252.53125 27.886719 252.253906 28.003906 C 252.921875 27.839844 253.734375 28.273438 254.351562 28.070312 C 254.640625 27.972656 254.597656 27.945312 254.351562 27.886719 C 253.984375 27.800781 253.539062 27.878906 253.164062 27.8125 Z M 253.164062 27.8125 "/>
</g>
<mask id="mask5">
  <g filter="url(#alpha)">
<rect x="0" y="0" width="400" height="200" style="fill:rgb(0%,0%,0%);fill-opacity:0.101961;stroke:none;"/>
  </g>
</mask>
<clipPath id="clip6">
  <rect x="0" y="0" width="400" height="201"/>
</clipPath>
<g id="surface20" clip-path="url(#clip6)">
<path style=" stroke:none;fill-rule:nonzero;fill:rgb(0%,0%,0%);fill-opacity:1;" d="M 252.835938 30.285156 C 252.589844 30.226562 252.320312 30.214844 252.066406 30.253906 C 251.683594 30.28125 251.328125 30.402344 251.0625 30.59375 C 251.203125 30.640625 251.367188 30.640625 251.511719 30.59375 C 251.75 30.554688 251.996094 30.535156 252.242188 30.539062 C 252.453125 30.539062 253.085938 30.703125 253.25 30.632812 C 253.492188 30.523438 253 30.328125 252.835938 30.285156 Z M 252.835938 30.285156 "/>
</g>
<mask id="mask6">
  <g filter="url(#alpha)">
<rect x="0" y="0" width="400" height="200" style="fill:rgb(0%,0%,0%);fill-opacity:0.101961;stroke:none;"/>
  </g>
</mask>
<clipPath id="clip7">
  <rect x="0" y="0" width="400" height="201"/>
</clipPath>
<g id="surface23" clip-path="url(#clip7)">
<path style=" stroke:none;fill-rule:nonzero;fill:rgb(0%,0%,0%);fill-opacity:1;" d="M 272.925781 22.292969 C 272.375 22.164062 271.847656 21.988281 271.359375 21.769531 C 270.078125 21.203125 269 20.4375 267.734375 19.859375 C 267.09375 19.578125 266.429688 19.324219 265.75 19.097656 L 261.472656 17.578125 C 261.144531 17.449219 260.796875 17.347656 260.433594 17.28125 C 259.738281 17.175781 258.953125 17.5 258.242188 17.433594 C 257.5 17.335938 256.851562 17.027344 256.460938 16.578125 C 256.074219 16.136719 255.800781 15.648438 255.65625 15.140625 C 255.546875 14.839844 255.464844 14.539062 255.410156 14.230469 C 255.347656 13.914062 255.339844 13.589844 255.386719 13.269531 C 255.460938 12.636719 255.894531 12.046875 256.589844 11.632812 C 257.097656 11.382812 257.675781 11.210938 258.285156 11.125 C 258.671875 11.058594 259.0625 11.011719 259.460938 10.992188 C 259.683594 10.976562 259.910156 10.976562 260.136719 10.992188 C 261.75 11.078125 263.117188 11.839844 264.195312 12.675781 C 264.761719 13.117188 265.289062 13.59375 265.832031 14.039062 C 265.957031 14.3125 266.109375 14.582031 266.289062 14.839844 C 266.871094 15.640625 267.816406 16.277344 268.75 16.898438 L 269.761719 17.578125 C 270.269531 17.917969 271.148438 17.832031 271.628906 18.1875 C 271.820312 18.355469 271.96875 18.546875 272.054688 18.753906 C 272.59375 19.671875 272.90625 20.644531 272.980469 21.636719 C 272.984375 21.855469 272.964844 22.074219 272.925781 22.292969 Z M 272.925781 22.292969 "/>
</g>
<mask id="mask7">
  <g filter="url(#alpha)">
<rect x="0" y="0" width="400" height="200" style="fill:rgb(0%,0%,0%);fill-opacity:0.101961;stroke:none;"/>
  </g>
</mask>
<clipPath id="clip8">
  <rect x="0" y="0" width="400" height="201"/>
</clipPath>
<g id="surface26" clip-path="url(#clip8)">
<path style=" stroke:none;fill-rule:nonzero;fill:rgb(0%,0%,0%);fill-opacity:1;" d="M 239.65625 54.734375 L 217.644531 56.980469 C 217.695312 56.574219 217.871094 56.175781 218.160156 55.820312 C 220.714844 55.3125 223.308594 54.804688 225.964844 54.832031 C 226.832031 54.832031 227.691406 54.902344 228.550781 54.921875 C 231.054688 54.972656 233.488281 54.195312 235.972656 54.414062 C 236.476562 54.449219 236.957031 54.253906 237.15625 53.929688 C 237.265625 53.742188 237.308594 53.496094 237.582031 53.421875 C 237.777344 53.371094 238.050781 53.433594 238.171875 53.316406 C 238.21875 53.253906 238.242188 53.1875 238.25 53.117188 C 238.324219 52.863281 238.691406 52.75 238.980469 52.609375 C 239.710938 52.261719 240.125 51.664062 240.488281 51.089844 C 240.585938 50.964844 240.644531 50.828125 240.660156 50.691406 C 240.660156 50.578125 240.609375 50.464844 240.613281 50.351562 C 240.613281 49.953125 241.261719 49.722656 241.597656 49.394531 C 242.039062 48.964844 241.960938 48.378906 242.175781 47.875 C 242.46875 47.234375 243.246094 46.78125 243.441406 46.152344 L 243.535156 46.066406 L 247.285156 45.050781 Z M 239.65625 54.734375 "/>
</g>
<mask id="mask8">
  <g filter="url(#alpha)">
<rect x="0" y="0" width="400" height="200" style="fill:rgb(0%,0%,0%);fill-opacity:0.101961;stroke:none;"/>
  </g>
</mask>
<clipPath id="clip9">
  <rect x="0" y="0" width="400" height="201"/>
</clipPath>
<g id="surface29" clip-path="url(#clip9)">
<path style=" stroke:none;fill-rule:nonzero;fill:rgb(50.588235%,11.764706%,50.196078%);fill-opacity:1;" d="M 310.503906 169.5 C 310.503906 164.878906 240.992188 161.132812 155.25 161.132812 C 69.507812 161.132812 0 164.878906 0 169.5 C 0 174.117188 69.507812 177.863281 155.25 177.863281 C 240.992188 177.863281 310.503906 174.117188 310.503906 169.5 Z M 310.503906 169.5 "/>
</g>
<mask id="mask9">
  <g filter="url(#alpha)">
<rect x="0" y="0" width="400" height="200" style="fill:rgb(0%,0%,0%);fill-opacity:0.101961;stroke:none;"/>
  </g>
</mask>
<clipPath id="clip10">
  <rect x="0" y="0" width="400" height="201"/>
</clipPath>
<g id="surface32" clip-path="url(#clip10)">
<path style=" stroke:none;fill-rule:nonzero;fill:rgb(50.588235%,11.764706%,50.196078%);fill-opacity:1;" d="M 392.957031 190.855469 C 392.957031 185.847656 347.980469 181.785156 292.5 181.785156 C 237.019531 181.785156 192.042969 185.847656 192.042969 190.855469 C 192.042969 195.863281 237.019531 199.921875 292.5 199.921875 C 347.980469 199.921875 392.957031 195.863281 392.957031 190.855469 Z M 392.957031 190.855469 "/>
</g>
<mask id="mask10">
  <g filter="url(#alpha)">
<rect x="0" y="0" width="400" height="200" style="fill:rgb(0%,0%,0%);fill-opacity:0.101961;stroke:none;"/>
  </g>
</mask>
<clipPath id="clip11">
  <rect x="0" y="0" width="400" height="201"/>
</clipPath>
<g id="surface35" clip-path="url(#clip11)">
<path style=" stroke:none;fill-rule:nonzero;fill:rgb(0%,0%,0%);fill-opacity:1;" d="M 186.902344 169.460938 L 154.414062 169.460938 L 121.871094 169.171875 L 122.058594 168.011719 L 186.578125 168.011719 Z M 186.902344 169.460938 "/>
</g>
<mask id="mask11">
  <g filter="url(#alpha)">
<rect x="0" y="0" width="400" height="200" style="fill:rgb(0%,0%,0%);fill-opacity:0.101961;stroke:none;"/>
  </g>
</mask>
<clipPath id="clip12">
  <rect x="0" y="0" width="400" height="201"/>
</clipPath>
<g id="surface38" clip-path="url(#clip12)">
<path style=" stroke:none;fill-rule:nonzero;fill:rgb(0%,0%,0%);fill-opacity:1;" d="M 160.675781 150.207031 L 186.644531 168.300781 L 182.660156 150.207031 Z M 160.675781 150.207031 "/>
</g>
<mask id="mask12">
  <g filter="url(#alpha)">
<rect x="0" y="0" width="400" height="200" style="fill:rgb(0%,0%,0%);fill-opacity:0.101961;stroke:none;"/>
  </g>
</mask>
<clipPath id="clip13">
  <rect x="0" y="0" width="400" height="201"/>
</clipPath>
<g id="surface41" clip-path="url(#clip13)">
<path style=" stroke:none;fill-rule:nonzero;fill:rgb(0%,0%,0%);fill-opacity:1;" d="M 283.96875 8.613281 C 284.375 8.089844 284.136719 7.445312 283.859375 6.878906 C 283.949219 7.203125 283.882812 7.539062 283.675781 7.835938 C 283.414062 8.132812 283.03125 8.367188 282.578125 8.515625 C 281.484375 8.914062 280.816406 8.878906 279.691406 8.75 C 278.6875 8.660156 277.671875 8.785156 276.769531 9.109375 C 275.582031 9.503906 274.578125 10.121094 273.484375 10.628906 C 271.65625 11.515625 269.464844 12.199219 267.273438 11.996094 C 266.035156 11.882812 264.890625 11.488281 263.714844 11.210938 C 262.539062 10.929688 261.226562 10.742188 260.0625 11.039062 C 258.496094 11.4375 257.566406 12.582031 256.09375 13.128906 C 255.355469 13.371094 254.570312 13.535156 253.761719 13.617188 C 252.742188 13.753906 251.660156 13.886719 250.695312 13.617188 C 249.601562 13.324219 248.898438 12.589844 248.269531 11.894531 L 246.535156 9.980469 C 246.394531 9.980469 246.253906 9.980469 246.113281 9.980469 L 248.566406 12.683594 C 249.191406 13.375 249.890625 14.109375 250.988281 14.40625 C 251.957031 14.660156 253.039062 14.53125 254.054688 14.40625 C 254.863281 14.324219 255.648438 14.160156 256.386719 13.917969 C 257.847656 13.367188 258.789062 12.226562 260.359375 11.828125 C 261.53125 11.53125 262.839844 11.714844 264.011719 11.996094 C 265.183594 12.28125 266.335938 12.667969 267.570312 12.785156 C 269.761719 12.988281 271.953125 12.300781 273.777344 11.414062 C 274.875 10.886719 275.871094 10.28125 277.066406 9.894531 C 277.964844 9.570312 278.984375 9.445312 279.988281 9.535156 C 281.113281 9.664062 281.777344 9.699219 282.871094 9.300781 C 283.328125 9.152344 283.710938 8.914062 283.96875 8.613281 Z M 283.96875 8.613281 "/>
</g>
<linearGradient id="linear1" gradientUnits="userSpaceOnUse" x1="1364.21" y1="820.42" x2="1364.21" y2="492.03" gradientTransform="matrix(-0.365297,-0.0101394,-0.0146119,0.253485,838.940639,-6.590621)">
<stop offset="0" style="stop-color:rgb(50.196078%,50.196078%,50.196078%);stop-opacity:0.25098;"/>
<stop offset="0.54" style="stop-color:rgb(50.196078%,50.196078%,50.196078%);stop-opacity:0.121569;"/>
<stop offset="1" style="stop-color:rgb(50.196078%,50.196078%,50.196078%);stop-opacity:0.101961;"/>
</linearGradient>
<mask id="mask13">
  <g filter="url(#alpha)">
<rect x="0" y="0" width="400" height="200" style="fill:rgb(0%,0%,0%);fill-opacity:0.101961;stroke:none;"/>
  </g>
</mask>
<clipPath id="clip14">
  <rect x="0" y="0" width="400" height="201"/>
</clipPath>
<g id="surface44" clip-path="url(#clip14)">
<path style=" stroke:none;fill-rule:nonzero;fill:rgb(0%,0%,0%);fill-opacity:1;" d="M 322.585938 125.160156 C 321.808594 125.988281 321.078125 126.839844 320.394531 127.710938 C 319.917969 128.285156 319.53125 128.894531 319.238281 129.527344 C 318.808594 130.539062 318.824219 131.625 318.507812 132.660156 C 318.140625 133.875 317.285156 135.035156 317.285156 136.28125 C 317.339844 137.363281 317.878906 138.40625 318.828125 139.265625 C 319.773438 140.113281 320.855469 140.890625 322.050781 141.570312 C 324.808594 136.613281 326.347656 131.367188 326.609375 126.054688 C 326.644531 125.320312 326.648438 124.558594 326.265625 123.875 C 326.023438 123.445312 324.886719 122.261719 324.152344 122.726562 C 323.886719 122.898438 323.816406 123.664062 323.652344 123.917969 C 323.34375 124.351562 322.988281 124.765625 322.585938 125.160156 Z M 322.585938 125.160156 "/>
</g>
<mask id="mask14">
  <g filter="url(#alpha)">
<rect x="0" y="0" width="400" height="200" style="fill:rgb(0%,0%,0%);fill-opacity:0.101961;stroke:none;"/>
  </g>
</mask>
<clipPath id="clip15">
  <rect x="0" y="0" width="400" height="201"/>
</clipPath>
<g id="surface47" clip-path="url(#clip15)">
<path style=" stroke:none;fill-rule:nonzero;fill:rgb(0%,0%,0%);fill-opacity:1;" d="M 337.371094 150.828125 L 336.464844 155.292969 C 336.347656 155.753906 336.300781 156.21875 336.324219 156.6875 C 336.429688 157.738281 337.234375 158.683594 337.820312 159.65625 C 338.402344 160.632812 338.753906 161.792969 337.984375 162.699219 C 337.746094 162.984375 337.410156 163.222656 337.199219 163.511719 C 336.925781 163.964844 336.800781 164.453125 336.832031 164.941406 L 336.585938 171.28125 C 333.765625 171.414062 330.933594 171.402344 328.117188 171.246094 C 328.007812 171.253906 327.894531 171.234375 327.804688 171.191406 C 327.730469 171.125 327.691406 171.042969 327.695312 170.960938 C 327.574219 169.476562 327.945312 167.992188 327.824219 166.507812 C 327.78125 165.96875 327.667969 165.425781 327.65625 164.882812 C 327.609375 162.675781 329.183594 160.511719 328.707031 158.328125 C 328.558594 157.777344 328.363281 157.234375 328.125 156.699219 C 326.621094 152.898438 326.941406 148.898438 327.269531 144.976562 C 327.265625 144.914062 327.292969 144.851562 327.34375 144.796875 C 327.398438 144.761719 327.46875 144.734375 327.542969 144.722656 C 330.789062 144.050781 334.300781 144.511719 336.960938 145.96875 C 337.359375 146.191406 338.363281 146.40625 338.625 146.667969 C 338.992188 147.042969 338.507812 147.410156 338.300781 147.804688 C 337.835938 148.785156 337.523438 149.800781 337.371094 150.828125 Z M 337.371094 150.828125 "/>
</g>
<mask id="mask15">
  <g filter="url(#alpha)">
<rect x="0" y="0" width="400" height="200" style="fill:rgb(0%,0%,0%);fill-opacity:0.101961;stroke:none;"/>
  </g>
</mask>
<clipPath id="clip16">
  <rect x="0" y="0" width="400" height="201"/>
</clipPath>
<g id="surface50" clip-path="url(#clip16)">
<path style=" stroke:none;fill-rule:nonzero;fill:rgb(0%,0%,0%);fill-opacity:1;" d="M 331.089844 114.800781 C 330.929688 115.773438 329.570312 116.414062 328.273438 116.796875 L 336.480469 118.617188 C 335.949219 117.914062 336.378906 117.050781 336.90625 116.335938 C 337.335938 115.773438 337.824219 115.230469 338.367188 114.714844 C 338.449219 114.636719 338.539062 114.535156 338.480469 114.445312 C 338.429688 114.386719 338.347656 114.34375 338.25 114.320312 C 336.5625 113.800781 334.824219 113.261719 332.980469 113.070312 C 332.445312 113.015625 331.4375 112.867188 331.039062 113.246094 C 330.640625 113.621094 331.179688 114.351562 331.089844 114.800781 Z M 331.089844 114.800781 "/>
</g>
<mask id="mask16">
  <g filter="url(#alpha)">
<rect x="0" y="0" width="400" height="200" style="fill:rgb(0%,0%,0%);fill-opacity:0.101961;stroke:none;"/>
  </g>
</mask>
<clipPath id="clip17">
  <rect x="0" y="0" width="400" height="201"/>
</clipPath>
<g id="surface53" clip-path="url(#clip17)">
<path style=" stroke:none;fill-rule:nonzero;fill:rgb(0%,0%,0%);fill-opacity:1;" d="M 341.113281 136.210938 C 339.855469 135.988281 338.710938 135.425781 337.734375 134.808594 C 336.890625 134.285156 336.136719 133.695312 335.492188 133.046875 C 334.683594 132.164062 334.035156 131.210938 333.558594 130.21875 C 332.207031 127.578125 331.347656 124.828125 331.003906 122.035156 C 330.90625 121.273438 330.878906 120.460938 331.53125 119.859375 C 332.285156 119.183594 333.609375 118.960938 334.726562 119.316406 C 335.589844 119.613281 336.148438 120.203125 336.664062 120.765625 C 337.695312 121.886719 338.730469 123.023438 339.390625 124.269531 C 339.683594 124.820312 339.898438 125.390625 340.183594 125.945312 C 340.472656 126.496094 340.804688 127.03125 341.183594 127.550781 C 341.238281 127.824219 341.285156 128.097656 341.324219 128.375 C 341.660156 130.964844 341.144531 133.585938 341.113281 136.210938 Z M 341.113281 136.210938 "/>
</g>
<mask id="mask17">
  <g filter="url(#alpha)">
<rect x="0" y="0" width="400" height="200" style="fill:rgb(0%,0%,0%);fill-opacity:0.101961;stroke:none;"/>
  </g>
</mask>
<clipPath id="clip18">
  <rect x="0" y="0" width="400" height="201"/>
</clipPath>
<g id="surface56" clip-path="url(#clip18)">
<path style=" stroke:none;fill-rule:nonzero;fill:rgb(0%,0%,0%);fill-opacity:1;" d="M 336.675781 110.667969 C 336.816406 110.371094 336.894531 110.03125 337.230469 109.816406 C 337.46875 109.695312 337.738281 109.609375 338.027344 109.5625 C 339.589844 109.222656 341.199219 108.589844 341.71875 107.511719 C 341.839844 107.292969 341.867188 107.054688 341.800781 106.828125 C 341.765625 106.71875 341.699219 106.617188 341.605469 106.523438 C 342.203125 106.703125 342.722656 106.941406 342.867188 107.363281 C 342.933594 107.59375 342.902344 107.828125 342.785156 108.046875 C 342.265625 109.125 340.652344 109.757812 339.09375 110.101562 C 338.804688 110.144531 338.535156 110.230469 338.296875 110.355469 C 337.957031 110.566406 337.882812 110.90625 337.738281 111.207031 C 337.597656 111.503906 337.269531 111.828125 336.816406 111.8125 C 336.367188 111.796875 336.144531 111.511719 335.859375 111.269531 C 336.253906 111.234375 336.539062 110.945312 336.675781 110.667969 Z M 336.675781 110.667969 "/>
<path style=" stroke:none;fill-rule:nonzero;fill:rgb(0%,0%,0%);fill-opacity:1;" d="M 329.835938 113.75 C 331.714844 113.871094 332.457031 112.6875 332.761719 111.59375 C 332.808594 111.300781 332.941406 111.015625 333.148438 110.757812 C 333.367188 110.492188 333.8125 110.359375 334.242188 110.421875 C 334.589844 110.496094 334.8125 110.734375 335.050781 110.929688 C 334.710938 110.953125 334.40625 111.085938 334.226562 111.285156 C 334.019531 111.542969 333.886719 111.828125 333.835938 112.117188 C 333.542969 113.214844 332.796875 114.402344 330.914062 114.277344 C 330.171875 114.222656 329.480469 113.976562 328.984375 113.585938 C 329.253906 113.671875 329.542969 113.730469 329.835938 113.75 Z M 329.835938 113.75 "/>
</g>
<mask id="mask18">
  <g filter="url(#alpha)">
<rect x="0" y="0" width="400" height="200" style="fill:rgb(0%,0%,0%);fill-opacity:0.101961;stroke:none;"/>
  </g>
</mask>
<clipPath id="clip19">
  <rect x="0" y="0" width="400" height="201"/>
</clipPath>
<g id="surface59" clip-path="url(#clip19)">
<path style=" stroke:none;fill-rule:nonzero;fill:rgb(0%,0%,0%);fill-opacity:1;" d="M 64.164062 171.101562 C 63.421875 170.582031 62.589844 170.128906 61.6875 169.75 C 60.417969 169.164062 59.105469 168.566406 57.605469 168.367188 C 56.292969 168.191406 54.9375 168.339844 53.589844 168.289062 C 51.261719 168.191406 49.074219 167.492188 47.449219 166.335938 C 46.496094 165.648438 45.742188 164.8125 44.59375 164.285156 C 43.355469 163.722656 41.785156 163.597656 40.316406 163.738281 C 39.890625 163.78125 39.46875 163.84375 39.054688 163.917969 C 38.394531 165.1875 38.058594 166.527344 38.058594 167.875 C 38.058594 174.3125 45.582031 174.539062 54.863281 174.539062 C 59.367188 174.539062 63.457031 174.488281 66.472656 173.695312 L 65.96875 173.042969 C 65.488281 172.34375 64.882812 171.691406 64.164062 171.101562 Z M 64.164062 171.101562 "/>
</g>
<mask id="mask19">
  <g filter="url(#alpha)">
<rect x="0" y="0" width="400" height="200" style="fill:rgb(0%,0%,0%);fill-opacity:0.101961;stroke:none;"/>
  </g>
</mask>
<clipPath id="clip20">
  <rect x="0" y="0" width="400" height="201"/>
</clipPath>
<g id="surface62" clip-path="url(#clip20)">
<path style=" stroke:none;fill-rule:nonzero;fill:rgb(0%,0%,0%);fill-opacity:1;" d="M 210.957031 189.441406 C 211.941406 188.753906 213.046875 188.152344 214.242188 187.648438 C 215.925781 186.875 217.667969 186.082031 219.652344 185.820312 C 221.394531 185.589844 223.191406 185.785156 224.964844 185.714844 C 228.046875 185.582031 230.953125 184.660156 233.109375 183.125 C 234.375 182.214844 235.371094 181.097656 236.894531 180.40625 C 238.535156 179.644531 240.617188 179.496094 242.5625 179.683594 C 243.132812 179.738281 243.691406 179.816406 244.246094 179.921875 C 245.117188 181.605469 245.5625 183.378906 245.558594 185.167969 C 245.558594 193.707031 235.582031 194.003906 223.277344 194.003906 C 217.304688 194.003906 211.882812 193.933594 207.878906 192.882812 L 208.546875 192.019531 C 209.246094 191.113281 209.953125 190.203125 210.957031 189.441406 Z M 210.957031 189.441406 "/>
</g>
</defs>
<g id="surface1">
<use xlink:href="#surface8" mask="url(#mask0)"/>
<path style=" stroke:none;fill-rule:nonzero;fill:url(#linear0);" d="M 227.128906 60.445312 C 228.289062 60.429688 229.441406 60.488281 230.597656 60.445312 C 231.652344 60.410156 232.703125 60.292969 233.757812 60.21875 C 235.5625 60.09375 237.378906 60.105469 239.191406 60.050781 C 240.382812 60.015625 241.640625 59.933594 242.605469 59.449219 C 243.511719 58.992188 244.015625 58.253906 244.820312 57.714844 C 248.109375 55.523438 250.363281 52.589844 253.285156 50.15625 C 254.015625 49.539062 254.78125 48.921875 255.441406 48.261719 C 256.707031 46.992188 257.605469 45.554688 258.496094 44.136719 C 258.847656 43.609375 259.140625 43.066406 259.371094 42.507812 C 259.535156 42.0625 259.621094 41.601562 259.839844 41.167969 C 260.292969 40.273438 261.378906 39.492188 261.511719 38.550781 L 261.359375 38.566406 C 262.6875 37.394531 262.484375 35.347656 263.140625 33.84375 C 263.5625 32.953125 264.070312 32.082031 264.664062 31.238281 L 267.109375 27.542969 C 267.527344 26.910156 267.96875 26.257812 268.695312 25.769531 C 269.574219 25.179688 270.800781 24.882812 271.6875 24.296875 C 272.210938 23.933594 272.605469 23.492188 272.832031 23 L 272.910156 23.050781 C 273.378906 23.367188 273.742188 23.757812 274.199219 24.082031 C 275.183594 24.789062 276.542969 25.191406 277.546875 25.882812 C 278.054688 26.234375 278.476562 26.664062 279.09375 26.921875 C 279.742188 27.164062 280.539062 27.097656 281.082031 26.75 C 282.875 25.65625 285.550781 25.554688 287.488281 24.589844 C 288.027344 24.320312 288.492188 23.992188 288.996094 23.699219 C 290.199219 23.03125 291.507812 22.464844 292.894531 22 C 293.707031 22.007812 294.515625 22.089844 295.300781 22.238281 C 296.425781 22.453125 297.527344 22.8125 298.695312 22.796875 C 299.738281 22.761719 300.738281 22.492188 301.550781 22.035156 C 302.144531 21.714844 302.6875 21.273438 302.777344 20.769531 C 302.820312 20.238281 302.496094 19.730469 301.898438 19.398438 C 301.820312 19.351562 301.734375 19.308594 301.652344 19.265625 C 301.601562 18.804688 301.285156 18.378906 300.769531 18.085938 C 300.179688 17.765625 299.503906 17.523438 298.78125 17.382812 C 298.378906 17.273438 297.953125 17.207031 297.523438 17.183594 C 296.851562 17.210938 296.191406 17.316406 295.574219 17.5 C 294.328125 17.777344 293.046875 17.964844 291.746094 18.058594 C 291.519531 18.074219 291.050781 18.039062 290.652344 18.039062 L 290.515625 17.769531 C 288.996094 18.257812 287.230469 17.855469 285.5625 17.859375 C 284.753906 17.859375 283.945312 17.957031 283.136719 17.992188 C 282.242188 18.015625 281.347656 18.003906 280.457031 17.953125 L 277.757812 17.832031 C 276.605469 17.792969 275.457031 17.707031 274.316406 17.578125 C 274.011719 17.152344 273.710938 16.722656 273.371094 16.3125 C 272.796875 15.621094 272.125 14.972656 271.363281 14.378906 C 271.671875 14.195312 271.992188 14.027344 272.328125 13.871094 L 272.394531 13.84375 C 272.480469 13.808594 272.582031 13.773438 272.695312 13.738281 C 274.835938 14.445312 277.347656 14.339844 279.355469 13.464844 C 281.359375 12.585938 282.578125 11.054688 282.578125 9.410156 C 282.777344 9.355469 282.972656 9.292969 283.164062 9.222656 C 283.273438 9.183594 283.382812 9.140625 283.488281 9.09375 L 283.644531 9.019531 C 283.746094 8.964844 283.839844 8.910156 283.929688 8.847656 C 283.972656 8.820312 284.019531 8.789062 284.058594 8.753906 C 284.136719 8.691406 284.207031 8.617188 284.265625 8.542969 C 284.289062 8.511719 284.308594 8.484375 284.328125 8.453125 C 284.347656 8.421875 284.328125 8.429688 284.347656 8.417969 C 284.367188 8.40625 284.371094 8.371094 284.382812 8.351562 C 284.394531 8.332031 284.382812 8.320312 284.402344 8.308594 L 284.421875 8.246094 C 284.425781 8.230469 284.425781 8.214844 284.421875 8.199219 C 284.421875 8.175781 284.421875 8.15625 284.421875 8.140625 L 284.421875 8.085938 C 284.421875 8.066406 284.421875 8.050781 284.421875 8.03125 C 284.425781 8.011719 284.425781 7.992188 284.421875 7.976562 C 284.421875 7.957031 284.421875 7.9375 284.421875 7.917969 C 284.425781 7.898438 284.425781 7.882812 284.421875 7.863281 L 284.421875 7.792969 C 284.425781 7.773438 284.425781 7.753906 284.421875 7.738281 C 284.421875 7.71875 284.421875 7.699219 284.421875 7.683594 L 284.421875 7.570312 C 284.421875 7.546875 284.421875 7.527344 284.421875 7.503906 C 284.425781 7.492188 284.425781 7.476562 284.421875 7.460938 C 284.425781 7.4375 284.425781 7.414062 284.421875 7.390625 C 284.421875 7.375 284.421875 7.359375 284.421875 7.347656 C 284.421875 7.335938 284.421875 7.296875 284.398438 7.273438 L 284.398438 7.238281 L 284.367188 7.15625 L 284.367188 7.125 C 284.367188 7.097656 284.339844 7.070312 284.328125 7.042969 L 284.328125 7.015625 L 284.285156 6.925781 L 284.285156 6.910156 C 284.285156 6.867188 284.246094 6.820312 284.222656 6.777344 C 283.949219 6.230469 283.652344 5.6875 283.339844 5.148438 C 283.109375 4.699219 282.765625 4.28125 282.324219 3.917969 C 281.675781 3.441406 280.75 3.203125 279.972656 2.820312 C 279.0625 2.375 278.378906 1.742188 277.605469 1.179688 C 276.828125 0.617188 275.890625 0.109375 274.777344 0.015625 C 273.890625 -0.0195312 273.007812 0.0898438 272.195312 0.34375 C 265.488281 2.0625 259.992188 5.449219 253.976562 8.132812 C 251.632812 9.179688 249.011719 10.164062 246.238281 10.027344 L 248.6875 12.726562 C 248.804688 12.855469 248.925781 12.976562 249.050781 13.117188 C 249.179688 13.253906 249.308594 13.367188 249.441406 13.496094 C 249.789062 13.824219 250.222656 14.101562 250.726562 14.3125 C 250.851562 14.363281 250.984375 14.40625 251.121094 14.445312 C 251.238281 14.476562 251.359375 14.5 251.484375 14.523438 C 252.359375 14.667969 253.3125 14.546875 254.195312 14.421875 C 254.5 14.382812 254.800781 14.339844 255.101562 14.292969 L 255.464844 14.21875 L 255.523438 14.21875 C 255.523438 14.234375 255.523438 14.25 255.523438 14.261719 C 255.320312 14.515625 255.125 14.746094 254.957031 14.996094 C 254.390625 15.90625 253.953125 16.847656 253.652344 17.816406 C 252.960938 19.714844 252.265625 21.65625 252.449219 23.609375 C 252.511719 24.269531 252.671875 24.941406 252.398438 25.578125 C 252.265625 25.886719 252.03125 26.207031 252.15625 26.515625 C 252.289062 26.695312 252.398438 26.878906 252.492188 27.070312 C 252.550781 27.363281 252.214844 27.617188 251.972656 27.859375 C 251.734375 28.105469 251.609375 28.492188 251.953125 28.660156 C 251.242188 28.835938 250.738281 29.273438 250.648438 29.789062 C 250.65625 29.9375 250.613281 30.085938 250.523438 30.222656 C 250.421875 30.316406 250.296875 30.394531 250.160156 30.457031 C 249.789062 30.675781 249.542969 30.976562 249.476562 31.308594 C 248.769531 31.308594 248.175781 31.785156 247.53125 32.070312 C 246.96875 32.269531 246.375 32.417969 245.761719 32.515625 C 243.996094 32.90625 242.472656 33.710938 241.097656 34.558594 C 240.328125 35.023438 239.554688 35.535156 239.21875 36.199219 C 239.109375 36.414062 239.050781 36.644531 238.957031 36.863281 C 238.757812 37.292969 238.472656 37.695312 238.109375 38.066406 C 237.40625 38.8125 236.542969 39.484375 235.550781 40.046875 C 235.046875 40.328125 234.605469 40.660156 234.234375 41.027344 C 233.675781 41.585938 232.539062 41.753906 231.941406 42.292969 C 231.726562 42.558594 231.480469 42.8125 231.210938 43.054688 C 230.746094 43.359375 230.046875 43.382812 229.453125 43.5625 C 228.070312 43.960938 227.429688 45.082031 226.195312 45.675781 C 226.128906 45.714844 226.039062 45.734375 225.949219 45.730469 C 225.84375 45.730469 225.78125 45.644531 225.691406 45.597656 C 225.511719 45.515625 225.273438 45.578125 225.0625 45.617188 C 224.851562 45.65625 224.566406 45.640625 224.511719 45.492188 C 221.535156 44.242188 218.609375 42.882812 215.628906 41.628906 L 214.269531 41.058594 L 207 38.003906 C 206.824219 37.925781 206.601562 37.925781 206.425781 38.003906 L 206.199219 38.113281 C 205.832031 37.84375 205.429688 37.605469 205.1875 37.40625 C 205.089844 37.328125 204.988281 37.25 204.886719 37.171875 C 204.953125 37.175781 205.019531 37.167969 205.082031 37.148438 C 205.25 37.085938 205.320312 36.941406 205.238281 36.820312 C 205.160156 36.703125 205.046875 36.601562 204.902344 36.523438 C 204.585938 36.308594 204.292969 36.078125 204.027344 35.832031 C 203.746094 35.519531 203.425781 35.230469 203.070312 34.957031 C 202.703125 34.683594 202.179688 34.539062 201.644531 34.566406 C 201.351562 34.605469 201.070312 34.683594 200.816406 34.796875 C 199.820312 35.199219 198.898438 35.6875 198.078125 36.253906 C 198.003906 36.289062 197.960938 36.347656 197.957031 36.410156 C 197.957031 36.460938 198.03125 36.5 198.039062 36.546875 C 198.039062 36.59375 198.015625 36.640625 197.96875 36.675781 C 197.476562 37.097656 196.894531 37.464844 196.242188 37.765625 C 195.3125 38.25 194.40625 38.75 193.519531 39.265625 C 192.964844 39.542969 192.527344 39.914062 192.25 40.34375 C 192.054688 40.84375 192.132812 41.378906 192.472656 41.839844 C 193.078125 42.832031 194.140625 43.652344 195.191406 44.445312 C 195.367188 44.609375 195.609375 44.730469 195.890625 44.785156 C 196.113281 44.808594 196.339844 44.769531 196.523438 44.679688 C 197.167969 44.386719 197.273438 43.777344 197.324219 43.246094 C 197.339844 42.992188 197.363281 42.757812 197.382812 42.515625 C 197.382812 42.464844 197.398438 42.417969 197.425781 42.371094 C 197.480469 42.316406 197.558594 42.273438 197.648438 42.25 L 198.652344 41.882812 C 198.621094 41.847656 198.589844 41.816406 198.558594 41.78125 C 199.316406 41.585938 200.140625 41.546875 200.929688 41.675781 C 201.460938 41.785156 201.949219 42.003906 202.460938 42.140625 C 202.378906 42.613281 202.507812 43.09375 202.828125 43.515625 C 204.703125 43.648438 206.390625 44.226562 208.066406 44.8125 C 209.417969 45.277344 210.730469 45.792969 212.003906 46.355469 C 213.035156 46.820312 214.046875 47.308594 215.035156 47.816406 C 216.4375 48.539062 217.792969 49.300781 219.132812 50.070312 C 220.003906 50.605469 220.941406 51.082031 221.9375 51.503906 C 224.574219 52.53125 228.109375 52.566406 230.53125 51.285156 C 233.585938 49.671875 237.472656 48.832031 240.761719 47.433594 C 241.738281 47.054688 242.628906 46.578125 243.410156 46.023438 C 243.402344 46.089844 243.386719 46.152344 243.363281 46.21875 C 243.167969 46.847656 242.382812 47.304688 242.085938 47.945312 C 241.855469 48.453125 241.941406 49.035156 241.492188 49.464844 C 241.15625 49.792969 240.519531 50.023438 240.5 50.429688 C 240.5 50.539062 240.546875 50.652344 240.546875 50.761719 C 240.53125 50.902344 240.46875 51.042969 240.371094 51.167969 C 240.007812 51.738281 239.597656 52.335938 238.847656 52.6875 C 238.558594 52.828125 238.183594 52.953125 238.117188 53.195312 C 238.113281 53.265625 238.089844 53.332031 238.042969 53.394531 C 237.917969 53.511719 237.644531 53.449219 237.445312 53.5 C 237.171875 53.570312 237.128906 53.816406 237.019531 54.007812 C 236.8125 54.332031 236.332031 54.527344 235.824219 54.496094 C 233.328125 54.285156 230.878906 55.066406 228.367188 55.023438 C 227.5 55.003906 226.636719 54.941406 225.769531 54.9375 C 223.101562 54.921875 220.488281 55.445312 217.921875 55.953125 C 217.636719 56.300781 217.457031 56.691406 217.402344 57.09375 C 216.523438 57.25 215.609375 57.273438 214.71875 57.164062 C 214.496094 57.132812 214.269531 57.113281 214.046875 57.101562 C 214.109375 56.984375 214.128906 56.863281 214.105469 56.738281 C 213.054688 56.972656 212.046875 57.28125 211.097656 57.671875 C 210.472656 57.925781 209.8125 58.277344 209.753906 58.777344 C 209.746094 58.972656 209.785156 59.164062 209.871094 59.347656 L 210.210938 60.242188 C 210.25 60.40625 210.355469 60.5625 210.511719 60.691406 C 210.625 60.765625 210.777344 60.8125 210.878906 60.890625 C 210.976562 60.988281 211.046875 61.097656 211.074219 61.214844 L 211.359375 61.988281 C 211.46875 62.246094 211.542969 62.511719 211.585938 62.777344 C 211.621094 63.03125 211.585938 63.265625 211.613281 63.507812 C 211.652344 63.910156 211.734375 64.308594 211.863281 64.699219 L 212.269531 66.105469 C 212.359375 66.496094 212.523438 66.878906 212.75 67.246094 C 212.921875 67.5 213.152344 67.714844 213.289062 67.96875 C 213.398438 68.164062 213.449219 68.371094 213.582031 68.558594 C 213.820312 68.859375 214.191406 69.097656 214.640625 69.238281 C 214.796875 69.300781 214.972656 69.339844 215.15625 69.347656 C 215.675781 69.347656 216.046875 69.015625 216.289062 68.695312 C 216.769531 68.113281 217.03125 67.457031 217.042969 66.789062 C 217.042969 66.519531 216.96875 66.253906 216.933594 65.984375 C 216.847656 65.222656 217.160156 64.484375 217.160156 63.726562 C 217.1875 63.515625 216.996094 63.324219 216.703125 63.265625 C 216.738281 62.621094 216.734375 61.9375 217.222656 61.390625 C 217.464844 61.132812 217.765625 60.90625 218.113281 60.71875 C 218.25 61.015625 218.398438 61.3125 218.566406 61.601562 C 221.347656 61.039062 224.21875 60.496094 227.128906 60.445312 Z M 286.523438 21.519531 C 286.328125 21.570312 286.125 21.621094 285.921875 21.664062 C 284.21875 22.058594 282.269531 22.441406 280.507812 22.171875 C 279.972656 22.066406 279.472656 21.894531 279.023438 21.664062 L 278.898438 21.609375 C 281.378906 21.308594 283.96875 21.382812 286.523438 21.519531 Z M 286.523438 21.519531 "/>
<path style=" stroke:none;fill-rule:nonzero;fill:rgb(98.431373%,74.509804%,74.509804%);fill-opacity:1;" d="M 296.410156 18.910156 C 297.023438 18.726562 297.679688 18.621094 298.347656 18.597656 C 298.777344 18.621094 299.199219 18.6875 299.597656 18.796875 C 300.320312 18.945312 300.996094 19.1875 301.585938 19.507812 C 302.179688 19.839844 302.503906 20.347656 302.464844 20.878906 C 302.382812 21.382812 301.839844 21.824219 301.25 22.144531 C 300.445312 22.601562 299.453125 22.867188 298.414062 22.90625 C 297.253906 22.917969 296.15625 22.554688 295.035156 22.339844 C 294.21875 22.179688 293.378906 22.09375 292.53125 22.085938 C 292.101562 22.101562 291.675781 22.082031 291.253906 22.03125 C 290.828125 21.972656 290.464844 21.78125 290.277344 21.507812 C 290.167969 21.261719 290.167969 20.996094 290.277344 20.746094 C 290.359375 20.433594 290.34375 19.6875 290.746094 19.5 C 291.070312 19.347656 292.207031 19.46875 292.601562 19.449219 C 293.894531 19.363281 295.171875 19.183594 296.410156 18.910156 Z M 296.410156 18.910156 "/>
<path style=" stroke:none;fill-rule:nonzero;fill:rgb(97.254902%,42.745098%,43.921569%);fill-opacity:1;" d="M 270.332031 13.808594 C 271.4375 14.558594 272.390625 15.410156 273.160156 16.34375 C 274.449219 17.898438 275.265625 19.707031 277.203125 20.90625 C 277.714844 21.207031 278.261719 21.480469 278.835938 21.722656 C 279.28125 21.953125 279.785156 22.125 280.316406 22.230469 C 282.054688 22.5 284.007812 22.125 285.703125 21.722656 C 287.378906 21.304688 289.007812 20.796875 290.570312 20.203125 C 290.582031 20.691406 290.777344 21.171875 291.140625 21.59375 C 291.546875 21.988281 292.375 22.222656 292.96875 21.972656 C 291.46875 22.460938 290.054688 23.066406 288.757812 23.78125 C 288.253906 24.074219 287.792969 24.398438 287.257812 24.664062 C 285.332031 25.625 282.671875 25.722656 280.890625 26.8125 C 280.351562 27.152344 279.558594 27.21875 278.914062 26.976562 C 278.296875 26.722656 277.878906 26.285156 277.371094 25.933594 C 276.367188 25.238281 275.011719 24.832031 274.027344 24.125 C 273.570312 23.800781 273.207031 23.410156 272.738281 23.09375 C 272.070312 22.636719 271.199219 22.332031 270.585938 21.824219 C 270.128906 21.453125 269.855469 21 269.429688 20.601562 C 269.0625 20.257812 268.632812 19.953125 268.308594 19.585938 C 267.511719 18.707031 267.519531 17.558594 267.972656 16.574219 C 268.429688 15.585938 269.480469 14.667969 270.332031 13.808594 Z M 270.332031 13.808594 "/>
<use xlink:href="#surface11" mask="url(#mask2)"/>
<path style=" stroke:none;fill-rule:nonzero;fill:rgb(98.431373%,74.509804%,74.509804%);fill-opacity:1;" d="M 205.40625 37.214844 C 205.125 36.960938 204.773438 36.738281 204.375 36.570312 C 203.773438 36.382812 203.097656 36.335938 202.449219 36.433594 C 200.820312 36.605469 199.308594 37.121094 197.878906 37.699219 C 196.722656 38.160156 195.578125 38.667969 194.75 39.390625 C 194.480469 39.609375 194.289062 39.871094 194.199219 40.152344 C 194.152344 40.382812 194.179688 40.621094 194.28125 40.84375 C 194.433594 41.355469 194.914062 41.785156 195.585938 42.015625 C 196.351562 42.222656 197.203125 42.003906 197.96875 41.800781 C 199 41.523438 200.132812 41.265625 201.191406 41.484375 C 201.976562 41.648438 202.652344 42.0625 203.480469 42.074219 C 204.457031 42.097656 205.246094 41.546875 205.867188 41.027344 C 206.402344 40.570312 207.578125 39.746094 207.503906 39.105469 C 207.425781 38.464844 205.984375 37.675781 205.40625 37.214844 Z M 205.40625 37.214844 "/>
<path style=" stroke:none;fill-rule:nonzero;fill:rgb(98.431373%,74.509804%,74.509804%);fill-opacity:1;" d="M 217.71875 56.945312 C 216.824219 57.109375 215.886719 57.136719 214.976562 57.023438 C 214.421875 56.953125 213.742188 56.863281 213.386719 57.164062 C 213.273438 57.273438 213.199219 57.402344 213.164062 57.539062 C 212.253906 60.121094 213.089844 62.863281 214.625 65.308594 C 214.644531 65.347656 214.679688 65.386719 214.730469 65.414062 C 214.828125 65.464844 214.960938 65.429688 215.074219 65.398438 C 215.449219 65.292969 215.796875 65.152344 216.109375 64.976562 C 216.8125 64.539062 216.960938 63.820312 216.992188 63.164062 C 217.027344 62.507812 217.011719 61.8125 217.5 61.25 C 218.113281 60.550781 219.398438 60.214844 219.902344 59.476562 C 220.308594 58.875 220.09375 58.164062 219.738281 57.546875 C 219.617188 57.335938 219.570312 56.789062 219.285156 56.683594 C 219 56.582031 218.042969 56.882812 217.71875 56.945312 Z M 217.71875 56.945312 "/>
<path style=" stroke:none;fill-rule:nonzero;fill:rgb(97.254902%,42.745098%,43.921569%);fill-opacity:1;" d="M 205.300781 36.957031 C 205.46875 36.894531 205.535156 36.75 205.453125 36.628906 C 205.375 36.511719 205.261719 36.410156 205.117188 36.328125 C 204.800781 36.117188 204.507812 35.882812 204.25 35.636719 C 203.960938 35.328125 203.640625 35.035156 203.289062 34.761719 C 202.925781 34.488281 202.402344 34.34375 201.867188 34.367188 C 201.574219 34.402344 201.292969 34.480469 201.042969 34.59375 C 200.050781 34.996094 199.136719 35.484375 198.324219 36.046875 C 198.261719 36.089844 198.191406 36.140625 198.207031 36.203125 C 198.222656 36.261719 198.28125 36.289062 198.285156 36.339844 C 198.289062 36.386719 198.265625 36.429688 198.222656 36.464844 C 197.734375 36.886719 197.152344 37.253906 196.503906 37.550781 C 195.582031 38.03125 194.683594 38.53125 193.800781 39.046875 C 193.25 39.320312 192.8125 39.691406 192.539062 40.117188 C 192.355469 40.621094 192.4375 41.148438 192.769531 41.613281 C 193.378906 42.605469 194.445312 43.425781 195.492188 44.226562 C 195.667969 44.386719 195.914062 44.507812 196.195312 44.566406 C 196.414062 44.589844 196.640625 44.550781 196.820312 44.460938 C 197.460938 44.167969 197.550781 43.5625 197.605469 43.03125 L 197.664062 42.300781 C 197.664062 42.25 197.679688 42.203125 197.707031 42.160156 C 197.761719 42.105469 197.839844 42.0625 197.929688 42.035156 L 198.921875 41.671875 C 198.304688 40.972656 197.179688 40.566406 196 40.617188 C 195.734375 40.660156 195.457031 40.632812 195.21875 40.542969 C 194.980469 40.371094 194.980469 40.097656 195.21875 39.925781 C 195.460938 39.765625 195.757812 39.648438 196.082031 39.59375 C 198.699219 38.925781 201.066406 37.855469 203.609375 37.058594 C 203.886719 36.960938 204.195312 36.910156 204.507812 36.914062 C 204.761719 36.925781 205.0625 37.027344 205.300781 36.957031 Z M 205.300781 36.957031 "/>
<path style=" stroke:none;fill-rule:nonzero;fill:rgb(97.254902%,42.745098%,43.921569%);fill-opacity:1;" d="M 215.621094 63.503906 C 215.503906 63.65625 215.464844 63.832031 215.335938 63.980469 C 215.207031 64.132812 214.929688 64.234375 214.714844 64.160156 C 214.601562 64.105469 214.515625 64.027344 214.472656 63.933594 C 213.367188 62.175781 213.054688 60.226562 213.578125 58.34375 C 213.652344 58.035156 213.78125 57.734375 213.96875 57.449219 C 214.164062 57.175781 214.445312 56.898438 214.363281 56.597656 C 213.320312 56.828125 212.316406 57.136719 211.375 57.519531 C 210.753906 57.773438 210.101562 58.125 210.042969 58.625 C 210.035156 58.816406 210.078125 59.007812 210.164062 59.191406 L 210.507812 60.085938 C 210.546875 60.253906 210.652344 60.40625 210.8125 60.535156 C 210.921875 60.609375 211.070312 60.660156 211.179688 60.738281 C 211.277344 60.835938 211.347656 60.945312 211.375 61.058594 L 211.664062 61.835938 C 211.769531 62.09375 211.847656 62.359375 211.894531 62.625 C 211.925781 62.878906 211.894531 63.113281 211.921875 63.355469 C 211.964844 63.757812 212.050781 64.152344 212.179688 64.546875 L 212.589844 65.949219 C 212.683594 66.339844 212.847656 66.726562 213.074219 67.089844 C 213.246094 67.34375 213.476562 67.5625 213.617188 67.816406 C 213.722656 68.011719 213.777344 68.21875 213.910156 68.40625 C 214.148438 68.707031 214.519531 68.945312 214.964844 69.085938 C 215.125 69.152344 215.300781 69.191406 215.480469 69.203125 C 215.996094 69.214844 216.367188 68.867188 216.605469 68.546875 C 217.078125 67.96875 217.328125 67.3125 217.335938 66.644531 C 217.335938 66.378906 217.257812 66.113281 217.222656 65.84375 C 217.132812 65.082031 217.4375 64.34375 217.4375 63.585938 C 217.441406 62.878906 215.996094 63.011719 215.621094 63.503906 Z M 215.621094 63.503906 "/>
<path style=" stroke:none;fill-rule:nonzero;fill:rgb(98.431373%,74.509804%,74.509804%);fill-opacity:1;" d="M 269.214844 19.339844 C 268.078125 18.976562 267.078125 18.433594 266.292969 17.753906 C 265.890625 17.394531 265.523438 17.019531 265.199219 16.625 C 263.8125 15 262.621094 13.300781 261.636719 11.539062 C 263.191406 11.757812 264.824219 11.960938 266.355469 11.65625 C 267.15625 11.488281 267.898438 11.210938 268.546875 10.847656 C 269.378906 10.375 270.152344 9.851562 270.855469 9.285156 C 271.390625 9.992188 272 10.671875 272.683594 11.3125 C 273.074219 11.679688 274.394531 12.421875 274.296875 12.917969 C 274.199219 13.414062 272.738281 13.664062 272.144531 13.898438 L 272.085938 13.925781 C 271.210938 14.308594 270.449219 14.800781 269.835938 15.378906 C 268.691406 16.507812 268.292969 18.085938 269.214844 19.339844 Z M 269.214844 19.339844 "/>
<use xlink:href="#surface14" mask="url(#mask3)"/>
<path style=" stroke:none;fill-rule:nonzero;fill:rgb(98.431373%,74.509804%,74.509804%);fill-opacity:1;" d="M 282.304688 9.511719 C 282.304688 12.136719 279.242188 14.261719 275.464844 14.261719 C 271.683594 14.261719 268.621094 12.136719 268.621094 9.511719 C 268.621094 6.890625 271.683594 4.765625 275.464844 4.765625 C 279.242188 4.765625 282.304688 6.890625 282.304688 9.511719 Z M 282.304688 9.511719 "/>
<path style=" stroke:none;fill-rule:nonzero;fill:rgb(97.254902%,42.745098%,43.921569%);fill-opacity:1;" d="M 260.496094 39.085938 C 259.535156 39.488281 258.339844 39.507812 257.347656 39.140625 C 256.839844 38.925781 256.382812 38.65625 255.988281 38.347656 C 253.742188 36.746094 251.605469 35.050781 250.105469 33.066406 C 249.753906 32.648438 249.527344 32.1875 249.4375 31.707031 C 249.351562 31.21875 249.617188 30.734375 250.144531 30.40625 C 250.285156 30.34375 250.40625 30.265625 250.507812 30.171875 C 250.597656 30.039062 250.640625 29.890625 250.628906 29.742188 C 250.714844 29.226562 251.214844 28.789062 251.921875 28.617188 C 251.558594 28.445312 251.703125 28.0625 251.941406 27.816406 C 252.179688 27.570312 252.511719 27.308594 252.453125 27.027344 C 252.359375 26.835938 252.246094 26.652344 252.117188 26.472656 C 251.984375 26.164062 252.222656 25.84375 252.351562 25.535156 C 252.617188 24.902344 252.457031 24.226562 252.390625 23.570312 C 252.195312 21.617188 252.878906 19.679688 253.554688 17.78125 C 253.855469 16.816406 254.285156 15.875 254.84375 14.96875 C 255.015625 14.714844 255.207031 14.460938 255.40625 14.234375 C 256.09375 13.460938 256.863281 12.71875 257.703125 12.019531 C 258.09375 11.605469 258.636719 11.269531 259.269531 11.042969 C 259.328125 11.027344 259.390625 11.011719 259.453125 11 C 259.90625 10.917969 260.378906 10.890625 260.847656 10.925781 C 262.082031 10.976562 263.378906 11.179688 264.257812 11.78125 C 265.140625 12.386719 265.425781 13.230469 265.824219 14.046875 C 265.949219 14.320312 266.101562 14.589844 266.28125 14.847656 C 266.863281 15.648438 267.808594 16.285156 268.742188 16.90625 L 269.753906 17.585938 C 270.261719 17.925781 271.140625 17.835938 271.621094 18.195312 C 271.816406 18.363281 271.960938 18.554688 272.046875 18.761719 C 272.589844 19.675781 272.902344 20.648438 272.980469 21.636719 C 272.984375 21.855469 272.964844 22.074219 272.925781 22.292969 C 272.800781 23.054688 272.3125 23.769531 271.539062 24.320312 C 270.664062 24.90625 269.441406 25.195312 268.570312 25.78125 C 267.839844 26.269531 267.414062 26.921875 267 27.554688 C 266.195312 28.785156 265.390625 30.011719 264.585938 31.242188 C 264 32.082031 263.5 32.953125 263.082031 33.839844 C 262.324219 35.613281 262.753906 38.113281 260.496094 39.085938 Z M 260.496094 39.085938 "/>
<path style=" stroke:none;fill-rule:nonzero;fill:rgb(26.27451%,25.490196%,45.882353%);fill-opacity:1;" d="M 239.402344 59.976562 C 237.597656 60.023438 235.789062 60.011719 233.992188 60.128906 C 232.941406 60.199219 231.898438 60.320312 230.84375 60.351562 C 229.699219 60.386719 228.546875 60.320312 227.398438 60.335938 C 224.5 60.378906 221.644531 60.914062 218.855469 61.46875 C 218.070312 60.132812 217.660156 58.707031 217.648438 57.265625 C 217.640625 57.171875 217.640625 57.078125 217.648438 56.980469 C 217.699219 56.574219 217.875 56.175781 218.164062 55.820312 C 220.71875 55.3125 223.3125 54.804688 225.96875 54.832031 C 226.835938 54.832031 227.691406 54.902344 228.554688 54.921875 C 231.058594 54.972656 233.492188 54.195312 235.972656 54.414062 C 236.480469 54.449219 236.960938 54.253906 237.160156 53.929688 C 237.269531 53.742188 237.3125 53.496094 237.585938 53.421875 C 237.78125 53.371094 238.054688 53.433594 238.175781 53.316406 C 238.222656 53.253906 238.246094 53.1875 238.253906 53.117188 C 238.328125 52.863281 238.695312 52.75 238.984375 52.609375 C 239.714844 52.261719 240.128906 51.664062 240.492188 51.089844 C 240.589844 50.964844 240.648438 50.828125 240.664062 50.691406 C 240.664062 50.578125 240.613281 50.464844 240.617188 50.351562 C 240.617188 49.953125 241.265625 49.722656 241.601562 49.394531 C 242.042969 48.964844 241.964844 48.378906 242.179688 47.875 C 242.472656 47.234375 243.25 46.78125 243.445312 46.152344 C 243.464844 46.089844 243.480469 46.023438 243.488281 45.957031 C 242.714844 46.511719 241.828125 46.984375 240.855469 47.359375 C 237.609375 48.746094 233.730469 49.578125 230.703125 51.179688 C 228.300781 52.449219 224.777344 52.410156 222.148438 51.378906 C 221.15625 50.957031 220.21875 50.476562 219.351562 49.941406 C 218.011719 49.179688 216.660156 48.402344 215.261719 47.679688 C 214.289062 47.171875 213.277344 46.683594 212.234375 46.210938 C 210.96875 45.628906 209.660156 45.097656 208.308594 44.617188 C 206.636719 44.027344 204.953125 43.445312 203.089844 43.304688 C 202.605469 42.621094 202.570312 41.820312 202.988281 41.117188 C 203.414062 40.421875 203.992188 39.773438 204.699219 39.203125 C 205.226562 38.664062 205.890625 38.191406 206.65625 37.816406 C 206.828125 37.738281 207.050781 37.738281 207.226562 37.816406 L 214.464844 40.898438 L 215.820312 41.476562 C 218.789062 42.742188 221.714844 44.097656 224.683594 45.359375 C 224.738281 45.503906 225.027344 45.519531 225.234375 45.484375 C 225.441406 45.445312 225.679688 45.382812 225.859375 45.46875 C 225.945312 45.507812 226.007812 45.585938 226.117188 45.597656 C 226.207031 45.601562 226.292969 45.582031 226.359375 45.542969 C 227.585938 44.957031 228.214844 43.832031 229.59375 43.441406 C 230.179688 43.273438 230.878906 43.246094 231.339844 42.933594 C 231.609375 42.691406 231.855469 42.4375 232.070312 42.171875 C 232.664062 41.632812 233.792969 41.46875 234.34375 40.90625 C 234.710938 40.539062 235.148438 40.210938 235.648438 39.929688 C 236.644531 39.371094 237.507812 38.703125 238.207031 37.957031 C 238.566406 37.589844 238.847656 37.183594 239.042969 36.761719 C 239.136719 36.539062 239.195312 36.3125 239.300781 36.09375 C 239.632812 35.429688 240.398438 34.921875 241.160156 34.457031 C 242.546875 33.617188 244.039062 32.820312 245.792969 32.429688 C 246.40625 32.332031 246.996094 32.183594 247.558594 31.988281 C 248.261719 31.6875 248.910156 31.132812 249.71875 31.261719 C 250.023438 31.328125 250.300781 31.449219 250.515625 31.613281 C 251.507812 32.28125 252.417969 33.003906 253.238281 33.773438 C 254.542969 34.925781 255.84375 36.078125 257.144531 37.230469 C 257.554688 37.644531 258.074219 38 258.675781 38.28125 C 259.546875 38.59375 260.546875 38.683594 261.503906 38.535156 C 261.378906 39.476562 260.300781 40.25 259.855469 41.144531 C 259.636719 41.578125 259.554688 42.039062 259.394531 42.480469 C 259.167969 43.039062 258.878906 43.582031 258.527344 44.105469 C 257.652344 45.523438 256.765625 46.949219 255.511719 48.21875 C 254.859375 48.882812 254.113281 49.488281 253.378906 50.109375 C 250.480469 52.535156 248.261719 55.460938 244.976562 57.644531 C 244.179688 58.175781 243.675781 58.910156 242.785156 59.367188 C 241.816406 59.867188 240.566406 59.941406 239.402344 59.976562 Z M 239.402344 59.976562 "/>
<use xlink:href="#surface17" mask="url(#mask4)"/>
<path style=" stroke:none;fill-rule:nonzero;fill:rgb(81.568627%,82.352941%,83.529412%);fill-opacity:1;" d="M 341.640625 118.195312 L 368.492188 111.578125 L 370.203125 114.921875 L 343.351562 121.539062 Z M 341.640625 118.195312 "/>
<path style=" stroke:none;fill-rule:nonzero;fill:rgb(81.568627%,82.352941%,83.529412%);fill-opacity:1;" d="M 350.621094 125.128906 L 375.0625 119.105469 C 376.394531 118.78125 377.855469 119.261719 378.328125 120.1875 C 378.800781 121.109375 378.105469 122.125 376.773438 122.453125 L 352.335938 128.472656 Z M 350.621094 125.128906 "/>
<path style=" stroke:none;fill-rule:nonzero;fill:rgb(24.705882%,23.921569%,33.72549%);fill-opacity:1;" d="M 327.335938 114.726562 L 333.292969 113.257812 C 344.320312 110.542969 356.433594 114.542969 360.347656 122.195312 L 362.464844 126.328125 C 363.996094 129.320312 361.742188 132.605469 357.429688 133.667969 L 339.316406 138.132812 C 335.003906 139.195312 330.265625 137.628906 328.734375 134.636719 L 322.304688 122.070312 C 320.773438 119.078125 323.027344 115.789062 327.335938 114.726562 Z M 327.335938 114.726562 "/>
<use xlink:href="#surface20" mask="url(#mask5)"/>
<use xlink:href="#surface23" mask="url(#mask6)"/>
<use xlink:href="#surface26" mask="url(#mask7)"/>
<use xlink:href="#surface29" mask="url(#mask8)"/>
<use xlink:href="#surface32" mask="url(#mask9)"/>
<path style="fill:none;stroke-width:12;stroke-linecap:butt;stroke-linejoin:miter;stroke:rgb(24.705882%,23.921569%,33.72549%);stroke-opacity:1;stroke-miterlimit:10;" d="M 527.884971 697.606289 L 528.173691 683.444355 C 541.508311 682.673848 554.832236 682.180723 568.166855 681.91875 C 575.908848 681.780059 583.74708 681.733828 591.243125 683.675508 C 596.429404 685.016191 601.337656 687.296895 606.459775 688.899551 C 616.66124 692.074043 627.461533 692.505527 638.165586 692.78291 C 648.559531 693.075703 659.413291 693.183574 668.7379 688.591348 C 684.884873 680.593477 691.675156 660.945527 692.466465 642.946465 C 693.257773 624.962812 689.675498 606.825059 692.167051 588.949277 " transform="matrix(0.365297,0,0,0.253485,-19.229224,-14.106464)"/>
<path style=" stroke:none;fill-rule:nonzero;fill:rgb(81.568627%,82.352941%,83.529412%);fill-opacity:1;" d="M 186.960938 169.75 L 121.871094 169.171875 L 122.058594 168.011719 L 125.210938 148.902344 L 182.371094 148.902344 L 186.578125 168.011719 L 186.902344 169.460938 Z M 186.960938 169.75 "/>
<use xlink:href="#surface35" mask="url(#mask10)"/>
<path style=" stroke:none;fill-rule:nonzero;fill:rgb(81.568627%,82.352941%,83.529412%);fill-opacity:1;" d="M 111.019531 168.300781 L 197.394531 168.300781 L 197.394531 169.75 L 111.019531 169.75 Z M 111.019531 168.300781 "/>
<path style=" stroke:none;fill-rule:nonzero;fill:rgb(24.705882%,23.921569%,33.72549%);fill-opacity:1;" d="M 279.804688 34.125 C 279.816406 33.121094 279.253906 32.15625 278.238281 31.445312 C 277.222656 30.730469 275.839844 30.328125 274.394531 30.320312 L 33.183594 30.320312 C 31.738281 30.328125 30.359375 30.730469 29.34375 31.445312 C 28.328125 32.15625 27.765625 33.121094 27.777344 34.125 L 27.777344 135.585938 L 279.804688 135.585938 Z M 279.804688 34.125 "/>
<path style=" stroke:none;fill-rule:nonzero;fill:rgb(81.568627%,82.352941%,83.529412%);fill-opacity:1;" d="M 27.777344 134.570312 L 27.777344 146.457031 C 27.777344 148.527344 30.199219 150.207031 33.183594 150.207031 L 274.394531 150.207031 C 277.382812 150.207031 279.804688 148.527344 279.804688 146.457031 L 279.804688 134.570312 Z M 27.777344 134.570312 "/>
<path style=" stroke:none;fill-rule:nonzero;fill:rgb(18.431373%,18.039216%,25.490196%);fill-opacity:1;" d="M 38.210938 36.703125 L 270.621094 36.703125 L 270.621094 127.910156 L 38.210938 127.910156 Z M 38.210938 36.703125 "/>
<path style=" stroke:none;fill-rule:nonzero;fill:rgb(50.588235%,11.764706%,50.196078%);fill-opacity:1;" d="M 155.042969 145.699219 C 156.773438 145.699219 158.40625 145.148438 159.472656 144.207031 C 159.636719 144.0625 159.78125 143.914062 159.914062 143.757812 L 156.820312 143.40625 L 160.164062 143.421875 C 160.8125 142.445312 160.851562 141.324219 160.269531 140.324219 L 155.789062 141.9375 L 159.921875 139.832031 C 158.882812 138.542969 156.886719 137.773438 154.761719 137.835938 C 152.636719 137.902344 150.746094 138.792969 149.875 140.136719 C 149 141.484375 149.292969 143.054688 150.632812 144.203125 C 151.695312 145.144531 153.320312 145.695312 155.042969 145.699219 Z M 155.042969 145.699219 "/>
<use xlink:href="#surface38" mask="url(#mask11)"/>
<path style="fill:none;stroke-width:12;stroke-linecap:butt;stroke-linejoin:miter;stroke:rgb(24.705882%,23.921569%,33.72549%);stroke-opacity:1;stroke-miterlimit:10;" d="M 797.817441 197.515898 L 836.003428 146.924355 C 838.281113 143.934785 840.633652 140.806523 843.756113 138.633691 C 852.759922 132.423398 865.944834 136.106426 873.483652 144.073477 C 881.011777 152.040527 884.166318 163.13584 886.476084 173.845898 C 891.854844 198.517559 894.26085 223.759395 893.640635 249.00123 C 893.319834 262.284785 892.132871 275.722441 887.898301 288.327949 C 881.482285 307.513594 868.468467 323.663437 858.64127 341.323477 C 842.815098 369.801445 836.185215 407.77207 856.22457 433.460801 C 862.74752 441.828516 871.644395 448.22373 877.664756 456.976699 C 884.476426 466.839199 887.128379 478.905352 889.673398 490.63248 C 893.458848 508.32334 897.25499 526.13748 897.960752 544.229004 C 900.217051 602.725957 866.875156 661.16127 815.365244 688.976602 C 779.617344 708.300937 736.373398 713.894824 705.277109 740.1075 C 694.284336 749.322773 684.799326 762.899121 687.504746 776.953184 C 689.696885 788.372109 699.716563 797.032617 710.720029 800.808105 C 721.723496 804.583594 733.646592 804.275391 745.248887 803.612754 C 773.115781 802.010098 800.832969 798.589043 828.250742 793.365 C 851.476719 788.926875 874.670615 785.089746 894.923838 772.869492 C 896.944883 771.790781 898.6879 770.234355 899.971104 768.338906 C 901.275693 766.150664 901.500254 763.500117 901.682041 760.957441 C 902.227402 753.437285 902.751377 745.655156 900.099424 738.597305 C 897.009043 730.352871 889.962119 724.127168 886.583018 716.006016 C 883.203916 707.884863 883.813438 698.530898 885.994883 689.993672 C 888.700303 679.453125 893.608555 669.636855 898.548887 659.943867 C 903.360898 650.512852 908.23707 641.097246 913.904551 632.143945 C 929.837656 606.99457 951.620029 586.144629 973.167148 565.602891 " transform="matrix(0.365297,0,0,0.253485,-19.229224,-14.106464)"/>
<path style=" stroke:none;fill-rule:nonzero;fill:rgb(98.431373%,74.509804%,74.509804%);fill-opacity:1;" d="M 295.292969 17.578125 C 295.90625 17.394531 296.5625 17.289062 297.230469 17.265625 C 297.660156 17.289062 298.082031 17.355469 298.480469 17.464844 C 299.203125 17.613281 299.875 17.855469 300.46875 18.175781 C 301.0625 18.507812 301.386719 19.019531 301.347656 19.546875 C 301.265625 20.054688 300.722656 20.488281 300.132812 20.8125 C 299.328125 21.273438 298.335938 21.539062 297.296875 21.574219 C 296.136719 21.574219 295.039062 21.222656 293.917969 21.007812 C 293.101562 20.847656 292.257812 20.761719 291.410156 20.753906 C 290.984375 20.769531 290.558594 20.75 290.136719 20.695312 C 289.710938 20.640625 289.347656 20.445312 289.15625 20.175781 C 289.058594 19.929688 289.058594 19.671875 289.15625 19.425781 C 289.246094 19.113281 289.230469 18.363281 289.632812 18.175781 C 289.953125 18.027344 291.09375 18.148438 291.488281 18.125 C 292.78125 18.035156 294.054688 17.851562 295.292969 17.578125 Z M 295.292969 17.578125 "/>
<path style=" stroke:none;fill-rule:nonzero;fill:rgb(97.254902%,42.745098%,43.921569%);fill-opacity:1;" d="M 290.226562 17.832031 C 288.710938 18.3125 286.9375 17.914062 285.292969 17.910156 C 284.484375 17.910156 283.683594 18.003906 282.878906 18.039062 C 281.988281 18.058594 281.097656 18.042969 280.207031 17.988281 L 277.535156 17.863281 C 275.957031 17.828125 274.394531 17.675781 272.863281 17.417969 C 271.554688 16.347656 269.433594 15.875 267.855469 15.003906 C 266.589844 14.304688 265.683594 13.351562 264.605469 12.511719 C 263.527344 11.671875 262.164062 10.914062 260.550781 10.828125 C 259.929688 10.804688 259.304688 10.851562 258.699219 10.964844 C 258.089844 11.046875 257.511719 11.21875 257.007812 11.46875 C 256.308594 11.882812 255.875 12.472656 255.804688 13.109375 C 255.734375 13.738281 255.828125 14.371094 256.070312 14.976562 C 256.214844 15.488281 256.488281 15.972656 256.875 16.417969 C 257.269531 16.863281 257.917969 17.175781 258.660156 17.273438 C 259.363281 17.339844 260.144531 17.019531 260.851562 17.121094 C 261.214844 17.1875 261.5625 17.285156 261.886719 17.414062 L 266.167969 18.933594 C 266.847656 19.164062 267.511719 19.417969 268.148438 19.695312 C 269.421875 20.273438 270.496094 21.042969 271.777344 21.605469 C 273.058594 22.171875 274.675781 22.527344 276.101562 22.15625 C 280.484375 21.023438 285.425781 21.550781 290.074219 21.832031 C 290.046875 21.773438 290.234375 21.714844 290.289062 21.664062 C 290.867188 21.117188 291.125 20.441406 291.019531 19.765625 C 290.90625 19.101562 290.542969 18.472656 290.226562 17.832031 Z M 290.226562 17.832031 "/>
<path style=" stroke:none;fill-rule:nonzero;fill:rgb(18.431373%,18.039216%,25.490196%);fill-opacity:1;" d="M 282.871094 9.292969 C 283.328125 9.148438 283.707031 8.910156 283.96875 8.613281 C 284.382812 8.078125 284.128906 7.421875 283.84375 6.839844 C 283.558594 6.257812 283.269531 5.746094 282.953125 5.210938 C 282.722656 4.757812 282.378906 4.339844 281.9375 3.976562 C 281.289062 3.496094 280.367188 3.253906 279.59375 2.878906 C 278.679688 2.429688 278 1.792969 277.226562 1.230469 C 276.457031 0.671875 275.515625 0.152344 274.402344 0.0585938 C 273.546875 0.0273438 272.695312 0.140625 271.914062 0.378906 C 265.242188 2.082031 259.789062 5.449219 253.816406 8.121094 C 251.492188 9.164062 248.882812 10.132812 246.144531 9.996094 L 248.59375 12.695312 C 249.21875 13.390625 249.921875 14.121094 251.015625 14.417969 C 251.984375 14.671875 253.066406 14.546875 254.082031 14.417969 C 254.890625 14.335938 255.675781 14.171875 256.417969 13.929688 C 257.878906 13.382812 258.816406 12.238281 260.386719 11.839844 C 261.558594 11.542969 262.867188 11.726562 264.039062 12.011719 C 265.210938 12.292969 266.363281 12.679688 267.597656 12.796875 C 269.789062 13 271.980469 12.3125 273.808594 11.425781 C 274.902344 10.898438 275.902344 10.292969 277.097656 9.90625 C 277.996094 9.582031 279.015625 9.457031 280.019531 9.546875 C 281.125 9.65625 281.773438 9.691406 282.871094 9.292969 Z M 282.871094 9.292969 "/>
<use xlink:href="#surface41" mask="url(#mask12)"/>
<path style=" stroke:none;fill-rule:nonzero;fill:url(#linear1);" d="M 302.851562 182.003906 C 303.066406 181.773438 303.335938 181.566406 303.648438 181.390625 C 305.246094 180.347656 305.988281 178.8125 306.382812 177.304688 C 306.777344 175.800781 306.890625 174.261719 307.519531 172.789062 C 307.863281 172.035156 308.292969 171.300781 308.808594 170.59375 C 309.171875 170.050781 309.628906 168.984375 310.300781 168.609375 C 310.433594 168.527344 310.589844 168.476562 310.761719 168.453125 C 311.074219 167.988281 311.527344 167.570312 312.085938 167.230469 C 313.128906 166.574219 314.402344 166.054688 315.101562 165.203125 C 315.292969 164.910156 315.527344 164.628906 315.804688 164.371094 C 316.277344 164.007812 317.023438 163.863281 317.457031 163.480469 C 318.023438 162.988281 317.894531 162.285156 317.824219 161.65625 C 317.75 161.027344 317.824219 160.28125 318.605469 159.953125 C 319.070312 159.753906 319.675781 159.773438 320.160156 159.597656 C 320.890625 159.34375 321.179688 158.703125 321.164062 158.132812 C 321.152344 157.5625 320.894531 157.007812 320.828125 156.4375 C 320.625 154.625 322.347656 152.820312 321.679688 151.058594 C 321.429688 150.394531 320.855469 149.8125 320.425781 149.195312 C 320.28125 148.988281 320.160156 148.769531 320.0625 148.550781 C 318.921875 148.863281 317.726562 149.0625 316.507812 149.144531 C 318.519531 146.011719 318.007812 142.371094 318.949219 139.007812 L 318.828125 138.890625 C 317.878906 138.023438 317.339844 136.972656 317.285156 135.886719 C 317.285156 134.617188 318.128906 133.460938 318.507812 132.234375 C 318.832031 131.191406 318.820312 130.105469 319.238281 129.078125 C 319.535156 128.445312 319.921875 127.832031 320.398438 127.25 C 320.855469 126.660156 321.332031 126.085938 321.832031 125.519531 C 322.300781 124.445312 322.769531 123.367188 323.238281 122.292969 C 323.898438 120.773438 324.574219 119.253906 325.851562 117.949219 C 326.320312 117.46875 326.460938 116.503906 327.183594 116.214844 C 327.765625 116.003906 328.429688 115.921875 329.082031 115.984375 C 330.097656 115.589844 330.988281 115.019531 331.117188 114.238281 C 331.128906 114.066406 331.105469 113.898438 331.042969 113.730469 L 330.917969 113.730469 C 329.308594 113.628906 328.496094 112.644531 327.660156 111.785156 C 326.304688 110.386719 326.824219 108.5 327.660156 106.917969 C 327.867188 106.417969 328.242188 105.957031 328.757812 105.578125 C 329.929688 104.816406 331.785156 104.984375 333.296875 104.617188 C 333.789062 104.46875 334.289062 104.335938 334.796875 104.222656 C 335.804688 104.058594 336.855469 104.289062 337.773438 104.609375 C 338.695312 104.929688 339.554688 105.347656 340.519531 105.601562 C 341.484375 105.855469 342.675781 106.054688 342.910156 106.742188 C 342.980469 106.972656 342.949219 107.214844 342.828125 107.433594 C 342.605469 107.875 342.21875 108.265625 341.703125 108.5625 C 342.535156 109.753906 342.570312 111.132812 341.808594 112.34375 C 341.042969 113.554688 339.554688 114.472656 337.730469 114.855469 C 337.453125 115.164062 337.195312 115.480469 336.957031 115.800781 C 336.535156 116.371094 336.175781 117.039062 336.316406 117.648438 C 336.582031 117.839844 336.828125 118.046875 337.046875 118.265625 C 338.097656 119.28125 338.691406 120.472656 339.238281 121.65625 C 339.980469 123.171875 340.570312 124.71875 341.007812 126.289062 C 341.898438 127.601562 342.988281 128.859375 343.632812 130.242188 C 344.792969 130.242188 345.945312 130.136719 347.0625 129.925781 L 350.144531 129.4375 C 351.214844 129.269531 352.335938 129.085938 353.175781 128.59375 C 353.621094 128.34375 353.96875 128.003906 354.421875 127.75 C 354.875 127.5 355.785156 127.207031 356.28125 127.414062 C 356.371094 127.453125 356.457031 127.496094 356.535156 127.546875 C 356.984375 126.914062 359.859375 129.507812 357.890625 129.765625 L 358.019531 130.019531 C 358.28125 130.542969 358.832031 131.179688 358.691406 131.730469 L 344.972656 134.996094 C 344.09375 135.242188 343.160156 135.386719 342.210938 135.417969 C 341.839844 135.417969 341.472656 135.382812 341.113281 135.316406 L 341.113281 135.824219 C 341.078125 139.167969 341.84375 142.488281 341.988281 145.832031 C 342.011719 146.4375 341.988281 147.097656 341.433594 147.574219 C 340.8125 148.097656 339.707031 148.199219 338.746094 148.082031 C 338.519531 148.054688 338.292969 148.019531 338.066406 147.976562 C 337.742188 148.816406 337.507812 149.671875 337.367188 150.539062 L 336.457031 155.039062 C 336.339844 155.503906 336.289062 155.972656 336.3125 156.445312 C 336.421875 157.503906 337.226562 158.457031 337.8125 159.4375 C 338.394531 160.417969 338.742188 161.59375 337.972656 162.507812 C 337.734375 162.789062 337.402344 163.035156 337.1875 163.328125 C 336.914062 163.78125 336.789062 164.273438 336.820312 164.765625 C 336.765625 166.132812 336.710938 167.5 336.660156 168.867188 C 336.820312 168.851562 336.984375 168.875 337.121094 168.933594 C 337.882812 169.339844 337.796875 171.296875 337.851562 171.902344 C 337.910156 172.917969 337.851562 173.953125 337.933594 174.976562 C 338.03125 176.359375 338.359375 177.730469 338.910156 179.066406 C 339.042969 179.496094 339.332031 179.898438 339.746094 180.234375 C 340.175781 180.488281 340.683594 180.671875 341.230469 180.769531 C 343.050781 181.164062 344.957031 181.34375 346.863281 181.300781 C 347.632812 181.28125 348.4375 181.230469 349.15625 181.433594 C 349.871094 181.636719 350.449219 182.195312 350.1875 182.703125 C 349.964844 183.128906 349.289062 183.332031 348.679688 183.492188 C 347.285156 183.832031 345.941406 184.257812 344.660156 184.773438 C 344.167969 185.007812 343.648438 185.210938 343.105469 185.382812 C 342.585938 185.515625 342.050781 185.605469 341.503906 185.65625 L 335.03125 186.417969 C 333.707031 186.578125 332.109375 186.671875 331.265625 185.910156 C 330.808594 185.5 330.742188 184.941406 330.765625 184.421875 C 330.800781 183.410156 331.09375 182.378906 330.902344 181.363281 C 330.757812 180.761719 330.53125 180.175781 330.226562 179.605469 L 328.28125 175.621094 C 327.632812 174.285156 326.972656 172.9375 326.722656 171.539062 C 326.628906 171.03125 326.636719 170.457031 327.195312 170.140625 C 327.335938 170.058594 327.503906 170 327.679688 169.96875 C 327.699219 168.746094 327.929688 167.519531 327.832031 166.300781 C 327.804688 165.996094 327.761719 165.6875 327.726562 165.382812 C 327.382812 165.605469 327.082031 165.855469 326.820312 166.125 C 326.199219 166.800781 325.96875 167.699219 325.015625 168.152344 C 324.203125 168.539062 323.003906 168.515625 322.433594 169.074219 C 322.25 169.289062 322.113281 169.519531 322.023438 169.761719 C 321.691406 170.359375 321.195312 170.90625 320.5625 171.371094 C 320.34375 171.925781 320.039062 172.464844 319.660156 172.976562 C 319.121094 173.765625 318.585938 174.550781 318.054688 175.335938 C 317.480469 176.175781 316.902344 177.019531 316.226562 177.816406 C 315.714844 178.320312 315.300781 178.871094 315.003906 179.453125 C 314.488281 180.703125 315.324219 182.078125 316.65625 183 C 317.992188 183.925781 319.742188 184.453125 321.464844 184.949219 C 321.648438 184.988281 321.816406 185.058594 321.957031 185.152344 C 322.105469 185.273438 322.183594 185.429688 322.175781 185.59375 C 322.175781 186.175781 321.488281 186.679688 320.691406 186.859375 C 319.875 187.011719 319.023438 187.03125 318.195312 186.921875 C 313.527344 186.53125 308.875 185.738281 304.746094 184.164062 C 304.128906 183.960938 303.578125 183.667969 303.136719 183.304688 C 302.714844 182.9375 302.605469 182.441406 302.851562 182.003906 Z M 302.851562 182.003906 "/>
<path style=" stroke:none;fill-rule:nonzero;fill:rgb(97.254902%,42.745098%,43.921569%);fill-opacity:1;" d="M 322.585938 125.160156 C 321.808594 125.988281 321.078125 126.839844 320.394531 127.710938 C 319.917969 128.285156 319.53125 128.894531 319.238281 129.527344 C 318.808594 130.539062 318.824219 131.625 318.507812 132.660156 C 318.140625 133.875 317.285156 135.035156 317.285156 136.28125 C 317.339844 137.363281 317.878906 138.40625 318.828125 139.265625 C 319.773438 140.113281 320.855469 140.890625 322.050781 141.570312 C 324.808594 136.613281 326.347656 131.367188 326.609375 126.054688 C 326.644531 125.320312 326.648438 124.558594 326.265625 123.875 C 326.023438 123.445312 324.886719 122.261719 324.152344 122.726562 C 323.886719 122.898438 323.816406 123.664062 323.652344 123.917969 C 323.34375 124.351562 322.988281 124.765625 322.585938 125.160156 Z M 322.585938 125.160156 "/>
<use xlink:href="#surface44" mask="url(#mask13)"/>
<path style=" stroke:none;fill-rule:nonzero;fill:rgb(98.431373%,74.509804%,74.509804%);fill-opacity:1;" d="M 361.800781 127.929688 C 363.230469 127.765625 364.816406 127.847656 365.925781 128.488281 C 366.59375 128.882812 367.019531 129.445312 367.109375 130.050781 C 367.203125 130.753906 366.617188 131.585938 365.601562 131.644531 C 365.355469 131.644531 365.113281 131.632812 364.871094 131.609375 C 364.226562 131.605469 363.585938 131.644531 362.957031 131.71875 C 360.429688 131.882812 357.945312 131.1875 356.292969 129.851562 C 355.421875 129.109375 356.570312 128.765625 357.605469 128.613281 C 359.015625 128.40625 360.390625 128.097656 361.800781 127.929688 Z M 361.800781 127.929688 "/>
<path style=" stroke:none;fill-rule:nonzero;fill:rgb(24.705882%,23.921569%,33.72549%);fill-opacity:1;" d="M 337.371094 150.828125 L 336.464844 155.292969 C 336.347656 155.753906 336.300781 156.21875 336.324219 156.6875 C 336.429688 157.738281 337.234375 158.683594 337.820312 159.65625 C 338.402344 160.632812 338.753906 161.792969 337.984375 162.699219 C 337.746094 162.984375 337.410156 163.222656 337.199219 163.511719 C 336.925781 163.964844 336.800781 164.453125 336.832031 164.941406 L 336.585938 171.28125 C 333.765625 171.414062 330.933594 171.402344 328.117188 171.246094 C 328.007812 171.253906 327.894531 171.234375 327.804688 171.191406 C 327.730469 171.125 327.691406 171.042969 327.695312 170.960938 C 327.574219 169.476562 327.945312 167.992188 327.824219 166.507812 C 327.78125 165.96875 327.667969 165.425781 327.65625 164.882812 C 327.609375 162.675781 329.183594 160.511719 328.707031 158.328125 C 328.558594 157.777344 328.363281 157.234375 328.125 156.699219 C 326.621094 152.898438 326.941406 148.898438 327.269531 144.976562 C 327.265625 144.914062 327.292969 144.851562 327.34375 144.796875 C 327.398438 144.761719 327.46875 144.734375 327.542969 144.722656 C 330.789062 144.050781 334.300781 144.511719 336.960938 145.96875 C 337.359375 146.191406 338.363281 146.40625 338.625 146.667969 C 338.992188 147.042969 338.507812 147.410156 338.300781 147.804688 C 337.835938 148.785156 337.523438 149.800781 337.371094 150.828125 Z M 337.371094 150.828125 "/>
<use xlink:href="#surface47" mask="url(#mask14)"/>
<path style=" stroke:none;fill-rule:nonzero;fill:rgb(24.705882%,23.921569%,33.72549%);fill-opacity:1;" d="M 320.429688 149.476562 C 320.859375 150.09375 321.433594 150.667969 321.683594 151.332031 C 322.351562 153.078125 320.632812 154.878906 320.835938 156.667969 C 320.902344 157.234375 321.15625 157.785156 321.171875 158.351562 C 321.191406 158.914062 320.890625 159.542969 320.167969 159.800781 C 319.683594 159.976562 319.070312 159.960938 318.617188 160.15625 C 317.84375 160.480469 317.757812 161.226562 317.832031 161.847656 C 317.910156 162.46875 318.035156 163.167969 317.46875 163.65625 C 317.035156 164.035156 316.289062 164.179688 315.820312 164.539062 C 315.542969 164.792969 315.304688 165.074219 315.113281 165.367188 C 314.414062 166.210938 313.144531 166.730469 312.097656 167.394531 C 311.054688 168.058594 310.167969 169.03125 310.636719 169.949219 C 310.980469 170.625 311.945312 171.042969 312.875 171.359375 C 314.566406 171.9375 316.351562 172.378906 318.195312 172.664062 C 318.394531 172.703125 318.601562 172.710938 318.804688 172.683594 C 319.011719 172.632812 319.195312 172.542969 319.339844 172.429688 C 320.417969 171.699219 321.53125 170.929688 322.027344 169.945312 C 322.117188 169.703125 322.253906 169.476562 322.4375 169.261719 C 323.007812 168.710938 324.203125 168.726562 325.019531 168.347656 C 325.96875 167.898438 326.199219 167.007812 326.820312 166.335938 C 327.410156 165.699219 328.351562 165.265625 329.011719 164.671875 C 330.109375 163.6875 330.402344 162.378906 331.203125 161.253906 C 331.542969 160.777344 331.976562 160.332031 332.25 159.832031 C 332.523438 159.238281 332.691406 158.621094 332.75 158 C 333.265625 155.039062 334.574219 152.058594 333.75 149.128906 C 333.566406 148.480469 333.285156 147.859375 333.167969 147.195312 C 332.964844 146.046875 333.285156 144.871094 333.042969 143.722656 C 333.03125 143.433594 332.828125 143.160156 332.488281 142.988281 C 332.292969 142.925781 332.078125 142.898438 331.859375 142.898438 C 329.695312 142.820312 327.523438 142.855469 325.367188 143 C 324.269531 143.074219 323.039062 143.230469 322.386719 143.851562 C 321.828125 144.378906 321.855469 145.09375 321.65625 145.742188 C 321.4375 146.535156 320.855469 146.972656 320.246094 147.59375 C 319.632812 148.21875 319.980469 148.835938 320.429688 149.476562 Z M 320.429688 149.476562 "/>
<path style=" stroke:none;fill-rule:nonzero;fill:rgb(18.431373%,18.039216%,25.490196%);fill-opacity:1;" d="M 328.859375 170.074219 C 328.28125 170.074219 327.640625 170.054688 327.195312 170.308594 C 326.640625 170.621094 326.628906 171.203125 326.722656 171.699219 C 326.976562 173.085938 327.632812 174.421875 328.285156 175.753906 L 330.226562 179.710938 C 330.535156 180.273438 330.761719 180.859375 330.902344 181.453125 C 331.097656 182.46875 330.804688 183.484375 330.769531 184.496094 C 330.769531 185.003906 330.816406 185.566406 331.273438 185.976562 C 332.097656 186.710938 333.710938 186.625 335.035156 186.464844 L 341.503906 185.707031 C 342.050781 185.65625 342.585938 185.5625 343.105469 185.433594 C 343.644531 185.261719 344.164062 185.058594 344.65625 184.828125 C 345.9375 184.320312 347.28125 183.894531 348.675781 183.558594 C 349.28125 183.402344 349.960938 183.199219 350.179688 182.777344 C 350.441406 182.269531 349.863281 181.714844 349.148438 181.507812 C 348.429688 181.304688 347.632812 181.355469 346.855469 181.375 C 344.953125 181.417969 343.050781 181.238281 341.230469 180.84375 C 340.683594 180.753906 340.171875 180.570312 339.746094 180.3125 C 339.328125 179.984375 339.039062 179.585938 338.90625 179.15625 C 338.359375 177.835938 338.03125 176.472656 337.929688 175.101562 C 337.855469 174.085938 337.90625 173.070312 337.847656 172.058594 C 337.8125 171.457031 337.894531 169.523438 337.117188 169.109375 C 336.535156 168.800781 334.144531 169.65625 333.363281 169.78125 C 331.886719 170.007812 330.371094 170.109375 328.859375 170.074219 Z M 328.859375 170.074219 "/>
<path style=" stroke:none;fill-rule:nonzero;fill:rgb(18.431373%,18.039216%,25.490196%);fill-opacity:1;" d="M 307.542969 172.894531 C 306.914062 174.351562 306.8125 175.882812 306.40625 177.375 C 306 178.871094 305.273438 180.394531 303.679688 181.433594 C 303.367188 181.601562 303.097656 181.808594 302.886719 182.039062 C 302.609375 182.484375 302.71875 182.996094 303.160156 183.367188 C 303.601562 183.726562 304.148438 184.019531 304.761719 184.21875 C 308.886719 185.78125 313.53125 186.566406 318.210938 186.957031 C 319.035156 187.066406 319.886719 187.046875 320.703125 186.898438 C 321.496094 186.710938 322.203125 186.214844 322.1875 185.628906 C 322.195312 185.472656 322.117188 185.316406 321.96875 185.195312 C 321.828125 185.105469 321.660156 185.035156 321.476562 184.992188 C 319.75 184.5 318 183.964844 316.667969 183.058594 C 315.339844 182.15625 314.5 180.777344 315.015625 179.546875 C 315.316406 178.96875 315.726562 178.421875 316.234375 177.921875 C 316.902344 177.125 317.511719 176.304688 318.058594 175.460938 L 319.667969 173.121094 C 320.136719 172.441406 320.613281 171.738281 320.691406 170.976562 C 318.671875 171.042969 316.65625 170.820312 314.769531 170.320312 C 313.886719 170.070312 313.066406 169.730469 312.332031 169.308594 C 311.710938 168.949219 311.144531 168.277344 310.308594 168.746094 C 309.636719 169.121094 309.210938 170.175781 308.816406 170.714844 C 308.308594 171.417969 307.882812 172.144531 307.542969 172.894531 Z M 307.542969 172.894531 "/>
<path style=" stroke:none;fill-rule:nonzero;fill:rgb(98.431373%,74.509804%,74.509804%);fill-opacity:1;" d="M 331.089844 114.800781 C 330.929688 115.773438 329.570312 116.414062 328.273438 116.796875 L 336.480469 118.617188 C 335.949219 117.914062 336.378906 117.050781 336.90625 116.335938 C 337.335938 115.773438 337.824219 115.230469 338.367188 114.714844 C 338.449219 114.636719 338.539062 114.535156 338.480469 114.445312 C 338.429688 114.386719 338.347656 114.34375 338.25 114.320312 C 336.5625 113.800781 334.824219 113.261719 332.980469 113.070312 C 332.445312 113.015625 331.4375 112.867188 331.039062 113.246094 C 330.640625 113.621094 331.179688 114.351562 331.089844 114.800781 Z M 331.089844 114.800781 "/>
<use xlink:href="#surface50" mask="url(#mask15)"/>
<path style=" stroke:none;fill-rule:nonzero;fill:rgb(98.431373%,74.509804%,74.509804%);fill-opacity:1;" d="M 342.308594 111.121094 C 342.308594 113.589844 339.425781 115.589844 335.871094 115.589844 C 332.316406 115.589844 329.4375 113.589844 329.4375 111.121094 C 329.4375 108.65625 332.316406 106.65625 335.871094 106.65625 C 339.425781 106.65625 342.308594 108.65625 342.308594 111.121094 Z M 342.308594 111.121094 "/>
<path style=" stroke:none;fill-rule:nonzero;fill:rgb(97.254902%,42.745098%,43.921569%);fill-opacity:1;" d="M 341.433594 147.871094 C 340.8125 148.378906 339.710938 148.488281 338.75 148.378906 C 336.503906 148.125 334.664062 146.976562 332.46875 146.5625 C 329.773438 146.054688 326.914062 146.707031 324.371094 147.503906 C 321.832031 148.300781 319.296875 149.265625 316.511719 149.417969 C 319.027344 145.523438 317.589844 140.835938 319.992188 136.910156 C 320.585938 135.953125 321.40625 135.023438 321.539062 133.988281 C 321.703125 132.695312 320.773438 131.453125 320.632812 130.167969 C 320.5 129.023438 320.996094 127.886719 321.46875 126.796875 L 323.234375 122.78125 C 323.890625 121.285156 324.566406 119.761719 325.839844 118.472656 C 326.308594 117.996094 326.453125 117.039062 327.171875 116.75 C 328.734375 116.125 331.105469 116.914062 332.800781 116.957031 C 334.496094 117 336.039062 117.835938 337.03125 118.785156 C 338.078125 119.78125 338.675781 120.972656 339.222656 122.148438 C 340.097656 123.898438 340.75 125.699219 341.171875 127.527344 C 341.226562 127.800781 341.273438 128.074219 341.3125 128.351562 C 341.675781 130.957031 341.144531 133.574219 341.113281 136.1875 C 341.113281 136.1875 341.113281 136.1875 341.113281 136.207031 C 341.082031 139.523438 341.84375 142.820312 341.992188 146.136719 C 342.011719 146.753906 341.992188 147.414062 341.433594 147.871094 Z M 341.433594 147.871094 "/>
<use xlink:href="#surface53" mask="url(#mask16)"/>
<path style=" stroke:none;fill-rule:nonzero;fill:rgb(97.254902%,42.745098%,43.921569%);fill-opacity:1;" d="M 331.546875 119.367188 C 330.898438 119.96875 330.925781 120.789062 331.015625 121.542969 C 331.363281 124.335938 332.222656 127.085938 333.574219 129.722656 C 334.046875 130.71875 334.695312 131.667969 335.507812 132.550781 C 336.148438 133.199219 336.902344 133.792969 337.75 134.3125 C 338.992188 135.101562 340.503906 135.804688 342.1875 135.816406 C 343.136719 135.78125 344.070312 135.640625 344.949219 135.398438 L 358.652344 132.167969 C 358.789062 131.621094 358.238281 130.992188 357.980469 130.46875 L 357.25 128.964844 C 357.042969 128.550781 356.796875 128.101562 356.253906 127.875 C 355.714844 127.648438 354.847656 127.960938 354.394531 128.210938 C 353.945312 128.460938 353.597656 128.789062 353.15625 129.046875 C 352.308594 129.535156 351.191406 129.714844 350.121094 129.882812 L 347.042969 130.363281 C 345.925781 130.574219 344.773438 130.679688 343.617188 130.675781 C 342.757812 128.859375 341.125 127.257812 340.199219 125.453125 C 339.914062 124.898438 339.695312 124.328125 339.40625 123.777344 C 338.742188 122.53125 337.710938 121.398438 336.683594 120.273438 C 336.167969 119.707031 335.609375 119.117188 334.742188 118.828125 C 333.625 118.46875 332.300781 118.691406 331.546875 119.367188 Z M 331.546875 119.367188 "/>
<path style=" stroke:none;fill-rule:nonzero;fill:rgb(18.431373%,18.039216%,25.490196%);fill-opacity:1;" d="M 333.820312 112.128906 C 333.867188 111.835938 334 111.554688 334.207031 111.296875 C 334.429688 111.03125 334.871094 110.894531 335.300781 110.957031 C 335.945312 111.097656 336.160156 111.789062 336.832031 111.8125 C 337.285156 111.828125 337.609375 111.507812 337.753906 111.207031 C 337.894531 110.90625 337.972656 110.566406 338.3125 110.355469 C 338.546875 110.230469 338.820312 110.144531 339.109375 110.101562 C 340.667969 109.757812 342.28125 109.125 342.796875 108.046875 C 342.917969 107.828125 342.949219 107.59375 342.882812 107.363281 C 342.644531 106.683594 341.421875 106.476562 340.488281 106.226562 C 339.558594 105.980469 338.664062 105.5625 337.75 105.246094 C 336.835938 104.925781 335.777344 104.695312 334.773438 104.859375 C 334.261719 104.96875 333.761719 105.101562 333.269531 105.25 C 331.757812 105.613281 329.902344 105.445312 328.730469 106.199219 C 328.21875 106.578125 327.84375 107.035156 327.632812 107.53125 C 326.8125 109.105469 326.296875 110.976562 327.652344 112.363281 C 328.484375 113.214844 329.300781 114.191406 330.90625 114.292969 C 332.777344 114.410156 333.523438 113.222656 333.820312 112.128906 Z M 333.820312 112.128906 "/>
<use xlink:href="#surface56" mask="url(#mask17)"/>
<path style=" stroke:none;fill-rule:nonzero;fill:rgb(50.588235%,11.764706%,50.196078%);fill-opacity:1;" d="M 62.386719 164.839844 L 69.378906 161.984375 C 68.429688 160.867188 67.222656 159.863281 65.800781 159.019531 L 52.609375 161.867188 L 62.960938 157.648438 C 57.757812 155.667969 51.429688 155.742188 46.324219 157.84375 C 41.214844 159.941406 38.085938 163.757812 38.085938 167.875 C 38.085938 174.3125 45.605469 174.539062 54.890625 174.539062 C 64.171875 174.539062 71.691406 174.3125 71.691406 167.875 C 71.691406 166.246094 71.191406 164.632812 70.230469 163.144531 Z M 62.386719 164.839844 "/>
<use xlink:href="#surface59" mask="url(#mask18)"/>
<path style=" stroke:none;fill-rule:nonzero;fill:rgb(50.588235%,11.764706%,50.196078%);fill-opacity:1;" d="M 213.320312 181.140625 L 204.042969 177.355469 C 205.300781 175.871094 206.90625 174.542969 208.792969 173.421875 L 226.285156 177.195312 L 212.578125 171.605469 C 219.480469 168.980469 227.867188 169.078125 234.640625 171.863281 C 241.414062 174.644531 245.566406 179.703125 245.566406 185.167969 C 245.566406 193.707031 235.589844 194.003906 223.285156 194.003906 C 210.976562 194.003906 201 193.707031 201 185.167969 C 200.996094 183.003906 201.648438 180.867188 202.910156 178.890625 Z M 213.320312 181.140625 "/>
<use xlink:href="#surface62" mask="url(#mask19)"/>
</g>
</svg>
