<?xml version="1.0" standalone="no"?><svg xmlns="http://www.w3.org/2000/svg" viewBox="0 0 1440 320"><path fill="#9259f5" fill-opacity="1" d="M0,192L18.5,176C36.9,160,74,128,111,149.3C147.7,171,185,245,222,256C258.5,267,295,213,332,186.7C369.2,160,406,160,443,138.7C480,117,517,75,554,85.3C590.8,96,628,160,665,160C701.5,160,738,96,775,101.3C812.3,107,849,181,886,218.7C923.1,256,960,256,997,224C1033.8,192,1071,128,1108,112C1144.6,96,1182,128,1218,128C1255.4,128,1292,96,1329,112C1366.2,128,1403,192,1422,224L1440,256L1440,320L1421.5,320C1403.1,320,1366,320,1329,320C1292.3,320,1255,320,1218,320C1181.5,320,1145,320,1108,320C1070.8,320,1034,320,997,320C960,320,923,320,886,320C849.2,320,812,320,775,320C738.5,320,702,320,665,320C627.7,320,591,320,554,320C516.9,320,480,320,443,320C406.2,320,369,320,332,320C295.4,320,258,320,222,320C184.6,320,148,320,111,320C73.8,320,37,320,18,320L0,320Z"></path></svg>